<svg width="114" height="114" viewBox="0 0 114 114" fill="none" xmlns="http://www.w3.org/2000/svg">
<path d="M44.9617 39.3351C44.9617 40.1074 44.41 40.8797 43.5274 40.8797C43.417 40.8797 43.417 40.8797 43.3067 40.8797C42.2034 40.99 41.3208 40.1074 41.2104 39.0041C41.2104 38.8938 41.2104 38.7834 41.2104 38.6731C41.3208 37.6801 42.0931 36.9078 43.0861 36.9078C44.1894 36.9078 44.9617 37.9008 44.9617 39.3351Z" fill="black"/>
<path d="M31.2805 47.6098L28.9636 46.0652C30.0669 45.1826 30.7289 44.5206 31.7219 45.4033C32.4942 46.1756 32.6045 46.8375 31.2805 47.6098Z" fill="black"/>
<path d="M53.2363 29.8466L55.1119 19.6963L62.6144 20.6893L60.7387 24.1095L64.159 21.4616L73.3163 31.3912L69.4548 37.349L75.6333 35.8044L80.1568 46.8374L75.1919 49.2646L79.8258 50.6989V61.2906L74.53 60.4079C74.53 60.2976 76.7366 40.8796 53.2363 29.8466Z" fill="#FD5444"/>
<path d="M100.347 97.5892C100.016 97.2582 99.685 97.0375 99.2437 96.8168C97.4784 96.1549 95.6028 95.7136 93.7272 95.2722C90.969 94.8309 88.2108 94.6103 85.1215 94.2793C84.9009 92.2933 84.5699 90.1971 84.3492 88.2111C84.1286 85.5632 83.0253 83.7979 80.4877 83.0256C78.6121 82.5843 76.7365 82.143 74.8609 81.812C74.3092 80.4881 73.6472 79.2744 72.8749 78.0608C71.551 76.4059 71.551 74.9716 72.8749 73.3166C73.3162 72.765 73.6472 72.2133 74.0885 71.6617C74.9712 70.6687 75.4125 69.3448 75.4125 68.0208C75.4125 64.3799 75.6332 60.6287 75.4125 56.9878C75.1918 52.023 73.8679 47.2788 71.551 42.8656L69.6754 39.4454L67.6894 37.4595C63.9382 33.3773 58.8631 30.95 53.2362 29.7364L51.6916 26.4265C50.6987 24.4406 50.0367 22.6753 49.154 21.1307C48.4921 19.6964 47.4991 18.5931 45.2925 19.1448C44.7409 21.0204 44.0789 23.1166 43.4169 25.1026L40.9896 24.7716C39.2244 26.9782 40.438 28.8538 41.2103 30.7294C41.1 30.95 40.8793 31.281 40.6587 31.5017C36.4661 35.2529 32.1633 38.8938 27.9707 42.645C27.1984 43.5276 26.4261 44.5206 25.7641 45.6239L24.1092 47.1685C25.1022 49.4854 26.6468 51.4713 28.743 52.9056C29.736 53.8986 30.729 54.8916 31.6116 55.9949C35.6938 54.6709 39.114 51.361 43.4169 49.2648L46.2855 55.6639C45.6235 55.7742 45.2925 55.8845 44.9615 55.8845L24.2195 57.9808C20.689 58.3118 17.2688 58.7531 13.7382 59.1944C12.3039 59.3048 11.6419 59.9667 12.1936 61.8423C13.4072 61.9527 14.5105 62.063 15.7241 62.063C17.3791 61.8423 19.034 62.1733 20.4683 63.056C22.2336 64.2696 23.7782 63.6076 24.7712 61.6217C24.9918 61.2907 25.1022 60.8494 25.4332 60.1874C31.7219 58.9738 38.2314 58.8634 45.1822 57.9808L39.776 65.5936C38.8934 65.2626 38.0107 64.9316 37.1281 64.7109C35.2525 64.1593 33.2666 65.1522 32.7149 67.0278C32.4943 67.9105 32.4943 68.7931 32.9356 69.6757C33.1562 70.5584 34.1492 71.11 35.0318 70.8894C35.3628 70.779 35.6938 70.5584 35.9145 70.3377C36.3558 69.8964 36.7971 69.4551 37.2384 69.0138C37.4591 69.5654 37.4591 70.0067 37.2384 70.1171C35.6938 71.3307 35.8041 72.9856 36.0248 74.6406C36.2455 76.6265 36.9074 78.3918 38.1211 79.9364C39.3347 81.481 40.6587 82.9153 42.0929 84.5703C40.9896 84.9012 40.2173 85.2322 39.3347 85.4529C37.0178 85.8942 35.2525 87.8801 35.0318 90.1971C34.8112 91.6314 34.4802 93.0656 34.1492 94.6103C32.0529 95.2722 29.8463 95.8239 27.8604 96.7065C26.4261 97.2582 24.9918 98.0305 23.7782 98.9131C22.4543 99.9061 22.5646 101.23 23.8885 102.223C24.5505 102.775 25.2125 103.106 25.9848 103.216C28.8534 103.768 31.7219 104.099 34.5905 104.319C38.4521 104.54 42.3136 104.43 46.1751 104.319C55.2222 104.209 64.3795 104.209 73.4266 103.878C79.8257 103.657 86.2248 103.216 92.6239 102.775C95.0512 102.664 97.5888 102.113 99.685 100.899C101.561 100.016 101.671 98.8028 100.347 97.5892ZM44.6305 28.3021L42.3136 29.6261C42.2033 28.3021 42.2033 27.6401 42.0929 26.4265L44.6305 28.3021ZM38.2314 75.5232C37.3488 73.2063 38.0107 70.6687 39.8863 69.0138C42.2033 68.9034 44.5202 68.6828 46.9474 68.5725C50.9193 68.4621 54.5602 67.6898 57.7598 65.1522C58.5321 64.8212 59.4147 64.6006 60.2973 64.4903C61.4006 62.1733 62.7246 59.5254 63.9382 56.7672C64.4899 55.5535 64.3795 55.5535 63.6072 53.8986C62.3936 53.5676 62.1729 54.5606 61.7316 55.3329C60.6283 57.0982 59.7457 59.0841 58.5321 60.8494C55.6635 64.9316 51.14 65.5936 46.7268 66.1452C45.2925 66.2555 43.8582 66.2555 42.4239 66.1452C44.2995 62.1733 47.9404 59.8564 49.154 55.8845C47.6094 53.347 47.6094 50.1474 44.9615 48.0511L46.2855 46.3962C41.2103 48.3821 36.4661 50.9197 31.9426 53.8986C29.2947 51.4713 26.5365 49.1544 25.5435 45.5135C26.2055 45.2929 26.8674 44.9619 27.5294 44.5206C32.7149 40.2177 37.7901 35.9149 42.8652 31.612C43.7479 30.95 44.6305 30.2881 46.0648 29.2951C46.1751 27.5298 46.2855 25.3232 46.5061 22.896C46.9474 23.0063 47.3888 23.1166 47.4991 23.3373C48.7127 25.8749 50.809 28.0815 51.3606 30.95C51.471 31.612 52.2433 32.0533 52.5743 32.4946C56.8771 32.8256 61.0696 34.7012 64.1589 37.7905C68.2411 41.5417 70.4477 46.2859 72.1026 51.4713C73.8679 57.0982 73.5369 62.9456 74.3092 67.6898L65.2622 77.6195C65.0415 77.8401 64.7105 77.9505 64.6002 78.1711C63.0556 81.15 60.187 82.474 57.7598 84.3496C54.5602 84.5703 51.3606 84.6806 48.2714 85.2322C46.7268 85.5632 45.0718 85.0116 43.8582 84.0186C41.431 81.9223 39.3347 78.9434 38.2314 75.5232ZM81.1496 96.7065C72.6543 98.0305 63.9382 98.5821 55.3325 98.4718C50.478 98.4718 45.6235 98.2511 40.8793 97.8098C37.4591 97.5892 36.4661 96.0445 36.5765 92.7347C36.6868 91.4107 36.9074 90.0867 37.1281 88.3215L44.8512 89.5351C44.8512 89.4248 44.9615 89.2041 44.9615 89.0938L38.783 87.4388C40.769 86.3355 42.4239 86.1149 43.6376 86.5562C46.5061 87.7698 49.3747 87.1078 52.2433 87.1078C55.8841 87.1078 59.4147 86.8872 63.0556 86.8872C65.9241 86.7768 68.6824 86.8872 71.4406 87.3285L59.9663 88.8731C67.1378 88.9834 74.3092 88.7628 81.3703 86.3355C82.1426 89.5351 82.8046 92.6243 83.6872 96.0445C82.8046 96.2652 82.0323 96.4859 81.1496 96.7065Z" fill="black"/>
</svg>
