<svg width="47" height="52" viewBox="0 0 47 52" fill="none" xmlns="http://www.w3.org/2000/svg">
<path d="M36.7746 30.4148C36.7083 31.2098 36.7746 32.0047 36.5759 32.7334C35.6484 35.9132 34.6547 39.0931 33.661 42.4054C34.0585 42.6041 34.5222 42.9354 35.0522 43.2003C35.8471 43.5316 36.0458 44.0615 35.8471 44.8565C35.4496 46.2477 35.0522 47.5725 34.6547 48.9637C34.3897 49.6924 34.1247 50.4211 33.8597 51.2161C33.7272 51.6798 33.3961 52.0773 32.9324 51.8123C31.4087 50.9511 29.6863 51.1499 28.0964 50.6861C25.1815 49.7587 22.2004 49.1625 19.2856 48.1688C15.7746 46.9764 12.3298 45.4527 8.88502 44.1278C8.68628 44.0615 8.48754 43.9953 8.22256 43.929C8.02382 44.6577 7.89129 45.3202 7.69256 45.9164C7.62631 46.1151 7.29508 46.3139 7.0301 46.4464C6.8976 46.1814 6.56641 45.9827 6.56641 45.7177C6.63265 45.1215 6.6989 44.459 6.89764 43.8628C7.62634 41.7429 8.35508 39.623 9.08379 37.5032C9.15003 37.3707 9.21623 37.2382 9.28248 37.0394C10.0112 35.4495 10.5411 35.1846 12.3298 35.6483C12.4623 35.1846 12.5948 34.6546 12.7273 34.1909C13.3898 31.9385 14.0522 29.6199 14.7147 27.3675C14.8472 26.8376 14.7809 26.2413 14.8472 25.7114C15.5096 25.1152 16.2383 24.4527 16.9008 23.8565C17.6957 23.8565 18.557 23.8565 19.3519 23.8565C20.0144 22.0679 20.5443 20.4117 21.2068 18.8218C21.9355 17.0994 22.6642 15.3107 23.5916 13.6546C24.0553 12.7934 24.784 11.9985 25.5127 11.4023C26.7714 10.4086 28.6263 11.071 29.09 12.5947C29.2888 13.3896 29.4212 14.3171 29.2225 15.0458C28.6263 17.5631 27.8976 20.0142 27.2351 22.5316C27.1689 22.8628 27.0365 23.1278 26.9702 23.3928C27.7652 23.989 28.4938 24.5189 29.2225 25.0489C29.4875 25.2477 29.9513 25.1152 30.2825 25.2476C31.0112 25.5789 31.7399 26.1751 32.5348 26.3738C33.3298 26.5726 34.191 26.5063 34.986 26.5063C35.1185 26.5063 35.1847 26.7051 35.3172 26.8376C35.8472 28.03 36.3108 29.2224 36.7746 30.4148ZM26.639 24.7177C26.5727 24.8502 26.4402 25.0489 26.3077 25.1814C26.109 25.3139 25.7778 25.5789 25.7115 25.5126C25.5128 25.3139 25.314 25.0489 25.2477 24.7839C25.1815 24.5189 25.314 24.254 25.4465 24.0552C26.0427 22.1341 26.7052 20.213 27.2351 18.2918C27.6326 16.9007 27.9638 15.4432 28.2288 13.9858C28.3613 13.2571 28.0301 12.4622 27.2351 12.1972C26.5064 11.9322 26.0427 12.4622 25.579 12.8596C25.314 13.0584 25.0491 13.3234 24.9828 13.5884C23.9229 15.907 22.8629 18.1593 21.8692 20.4779C21.2068 22.0678 20.8756 23.7902 19.7494 25.1151C17.8945 24.7177 16.9008 25.1151 16.2383 26.7713C15.6421 28.0962 15.2446 29.5537 14.8472 30.9448C14.2509 32.9985 13.721 35.0521 13.1248 37.1719C19.1532 39.623 25.314 41.6104 31.8061 42.8028C32.0711 42.3391 32.3361 41.9417 32.5348 41.4117C33.131 39.623 33.7273 37.8344 34.3235 36.0457C34.986 34.0584 35.6484 32.0047 35.7146 29.8849C35.7809 28.0962 35.2509 27.5663 33.3298 27.235C32.8661 28.03 34.3897 29.2887 32.866 29.9511C31.8723 27.3013 31.2761 26.5726 29.885 26.3076C29.62 26.9701 30.415 27.8975 29.2888 28.4274C28.3614 27.235 28.9576 24.9827 26.639 24.7177ZM8.75256 42.8028C9.28253 43.0678 9.61369 43.2666 10.0112 43.3991C14.9134 45.4527 19.9481 47.2413 25.1153 48.5662C27.6326 49.2287 30.15 50.0899 32.9324 50.0237C33.5286 48.235 34.1247 46.5126 34.7872 44.5915C26.3077 43.2003 18.2919 40.948 10.6736 37.1719C10.6074 37.3044 10.4086 37.5694 10.3424 37.7682C9.74618 39.4243 9.28253 41.0142 8.75256 42.8028Z" fill="#1B1818"/>
<path d="M15.5126 11.2697C14.7176 11.071 14.1214 10.8723 13.459 10.7398C14.7839 5.57257 20.746 0.736616 25.9132 0.140402C33.8627 -0.787042 39.2949 2.92271 42.6735 10.011C43.3359 9.87854 43.9984 9.67982 44.6608 9.61357C45.8533 9.48108 46.2508 9.81231 45.8533 10.9385C45.3896 12.4622 44.8596 13.9858 44.1971 15.377C43.4022 16.9669 42.6072 17.0331 41.3485 15.8407C40.4873 15.0457 39.7586 14.1845 39.0299 13.2571C38.6987 12.7934 38.5 12.1309 38.235 11.5347C38.8312 11.2697 39.2286 11.071 39.8248 10.806C38.5662 7.95741 36.5126 5.83756 33.7965 4.44639C30.3517 2.724 26.7744 2.39275 23.0647 3.85016C19.4211 5.10884 17.1025 7.82493 15.5126 11.2697Z" fill="#FF473E"/>
<path d="M16.9027 23.7239C16.2403 24.3201 15.5116 24.9826 14.8491 25.5788C14.3854 24.7176 13.8554 23.8564 13.5242 22.929C13.193 22.134 12.7293 21.6703 11.7356 21.7366C9.54949 21.9353 8.82071 21.2066 10.0131 19.0867C10.6756 17.9605 11.5368 16.9668 12.3318 15.9731C12.5305 15.7744 13.1268 15.7744 13.458 15.8406C13.7892 15.9069 14.1867 16.1057 14.3854 16.3706C15.5116 17.6956 16.6378 19.0867 17.764 20.4779C17.8965 20.6104 17.8302 20.8754 17.8964 21.2066C17.3002 21.4716 16.7703 21.6703 16.1078 22.0016C16.4391 22.5978 16.704 23.194 16.9027 23.7239Z" fill="#FF473E"/>
<path d="M36.7757 30.4148C36.312 29.2224 35.7821 28.0299 35.3184 26.7713C36.1796 27.235 36.7758 26.9038 37.372 26.3076C38.8956 24.8502 39.8231 23.0615 40.5518 21.0741C40.6843 20.6104 40.883 20.2129 41.0155 19.6167C41.7442 19.7492 42.3404 19.8817 43.0691 20.0142C42.4729 23.3265 40.8168 25.9101 38.6307 28.2949C38.1007 29.0237 37.4382 29.7523 36.7757 30.4148Z" fill="#FF473E"/>
<path d="M4.11574 17.4304C4.11574 18.6891 3.25449 19.7491 2.32705 19.6828C1.5321 19.6828 0.273438 18.2254 0.273438 17.3642C0.339684 16.3043 1.33339 15.3768 2.52582 15.3768C3.45326 15.3768 4.11574 16.238 4.11574 17.4304Z" fill="#1B1818"/>
<path d="M38.5641 34.1247C38.5641 33.1972 39.2266 32.601 40.2203 32.6672C40.949 32.7335 41.6114 33.396 41.6114 34.1247C41.6114 34.9859 40.8165 35.7145 39.9553 35.7145C39.0279 35.7145 38.4979 35.1184 38.5641 34.1247Z" fill="#1B1818"/>
<path d="M7.16278 7.62607C7.16278 8.42102 6.69902 8.95099 5.97032 8.95099C5.30786 8.95099 4.77787 8.42103 4.71163 7.75857C4.64538 7.2286 5.30787 6.49988 5.90409 6.49988C6.56655 6.49988 7.16278 7.02985 7.16278 7.62607Z" fill="#1B1818"/>
<path d="M43.6634 28.0299C43.1334 28.0299 42.6034 27.235 42.6697 26.6388C42.7359 25.9763 43.2659 25.4463 43.9284 25.5126C44.4583 25.5788 44.9883 26.175 44.9883 26.705C44.9221 27.2349 44.1933 28.0299 43.6634 28.0299Z" fill="#1B1818"/>
<path d="M2.59223 30.6134C1.66478 30.7459 1.0686 30.8784 0.472386 30.8784C0.273648 30.8784 -0.0576308 30.4147 0.0086152 30.2159C0.141107 29.8185 0.406075 29.3547 0.737305 29.0897C1.20103 28.7585 1.53232 29.0898 1.79731 29.5535C1.9298 29.8185 2.1285 30.0172 2.59223 30.6134Z" fill="#1B1818"/>
<path d="M12.9917 40.6828C12.9917 41.3453 12.3956 42.074 11.7331 42.074C11.1369 42.1403 10.4082 41.4116 10.4082 40.7491C10.4082 39.9542 11.0044 39.2917 11.7994 39.2917C12.4618 39.2254 12.9917 39.8879 12.9917 40.6828Z" fill="#1B1818"/>
</svg>
