<svg width="59" height="51" viewBox="0 0 59 51" fill="none" xmlns="http://www.w3.org/2000/svg">
<path d="M38.244 12.8967C38.3156 13.1113 38.3156 13.3974 38.4586 13.5404C41.4623 15.4713 43.6077 18.0459 45.4672 21.0496C46.7544 23.1951 47.2551 25.5551 47.8987 27.9151C47.9702 28.1297 48.0418 28.3442 48.0418 28.5588C48.3279 30.3467 47.8987 32.2061 47.8987 33.994C47.8987 35.7819 47.3266 37.7128 46.5399 39.4292C45.1096 42.6474 42.8926 45.365 40.032 47.3675C36.4561 49.8706 32.4513 51.0863 28.0173 50.7288C22.4391 50.2997 17.6474 47.9396 13.6425 44.1493C11.0679 41.7177 9.49461 38.571 8.49339 35.2813C7.13458 30.8473 7.34917 26.3418 9.06555 21.9793C10.4244 18.4035 12.7844 15.5428 16.0026 13.3974C18.7917 11.6095 21.7238 10.3222 25.0136 10.1791C27.016 10.1076 29.0185 9.75007 31.0209 10.6083C31.5931 10.8228 31.8792 10.4652 31.9507 9.9646C32.3083 10.8943 32.1652 12.0386 33.0234 12.7537C32.4513 15.7574 31.8792 18.7611 31.307 21.6933C31.8076 22.0508 32.0937 22.3369 32.5943 22.6944C31.6646 23.3381 30.8064 23.4811 29.8052 23.2666C29.1616 23.1235 28.5894 22.909 28.7325 22.1938C28.804 21.9078 29.4476 21.7647 29.9482 21.4072C30.3058 19.5478 30.6634 17.4738 31.0209 15.4713C31.0925 14.7562 31.0924 14.041 31.1639 13.2543C31.2355 13.0398 31.3785 12.8253 31.45 12.6107V12.5392C30.4488 12.3246 29.3761 11.8955 28.3749 11.824C24.2985 11.4664 20.6511 12.5392 17.2183 14.7562C13.9286 16.8302 11.7116 19.6908 10.4959 23.2666C8.63645 28.6303 8.99398 33.851 11.7831 38.9286C14.9298 44.6499 19.5068 48.2972 26.1578 49.0124C29.09 49.2984 32.0221 49.1554 34.7397 48.0827C38.9592 46.4378 42.3205 43.7202 44.466 39.5723C45.4672 37.6413 46.0393 35.6388 46.1823 33.2788C45.8247 33.7079 45.6102 33.9225 45.3957 34.137C44.752 34.7807 44.1084 35.4243 43.3933 35.9965C42.0345 37.1407 40.4611 36.7116 39.1738 36.068C37.815 35.3528 37.4574 33.9225 37.4574 32.4207C37.4574 31.491 38.1011 30.9188 38.3871 30.1321C39.1023 27.9867 41.5338 25.8412 43.6078 25.6981C44.2514 25.6266 44.895 25.8412 45.8247 25.9127C45.1096 24.3393 44.609 22.909 43.8938 21.6933C42.9641 20.1914 41.8914 18.6896 40.6041 17.4023C38.6017 15.3998 36.2416 13.9695 33.5955 12.8967C34.8113 11.967 36.0986 12.4677 37.3859 12.7537C37.6004 13.1828 37.8865 13.4689 38.3155 12.8967H38.244ZM45.6817 29.3454C45.1811 30.7042 44.6805 31.9915 44.1799 33.2788C44.9666 32.063 46.1108 30.9903 45.6817 29.3454ZM38.8162 30.0606C38.7447 30.0606 38.7446 29.9891 38.6731 29.9891C38.6731 30.0606 38.6016 30.0606 38.6016 30.1321C38.6731 30.1321 38.7447 30.2036 38.7447 30.2036C38.7447 30.1321 38.7447 30.1321 38.8162 30.0606Z" fill="#1B1818"/>
<path d="M33.022 12.6107C32.1638 11.8955 32.3068 10.7512 31.9492 9.82153C32.1638 7.60453 32.3068 5.38752 32.6644 3.24204C32.9504 1.02504 33.8801 0.309882 36.0971 0.381398C38.5286 0.452914 40.9602 0.52443 43.3918 0.738978C46.2524 1.02504 48.8985 2.09779 51.473 3.38508C53.4755 4.38631 55.3349 5.53057 57.5519 6.03118C58.3386 6.24573 59.1253 6.53181 58.9822 7.74759C57.1943 9.24942 55.2634 10.6082 52.4743 10.2506C52.9034 11.2519 53.69 11.4664 54.3337 11.7525C54.6913 11.8955 55.1203 11.967 55.4779 11.967C56.1216 11.967 56.4792 12.3246 56.5507 12.8252C56.5507 13.2543 56.4076 13.7549 56.1931 14.041C55.1203 15.1137 53.8331 15.7574 52.4028 16.1149C50.0428 16.6871 47.8972 16.0434 45.7518 15.1852C43.8923 14.4701 42.1045 13.6834 40.2451 12.9683C39.6729 12.7537 39.0293 12.1101 38.3857 12.7537V12.6822C38.1711 12.1816 37.8135 12.0385 37.4559 12.5391C36.1686 12.3246 34.8813 11.7525 33.6655 12.6822C33.3795 12.7537 33.165 12.6822 33.022 12.6107ZM43.2487 3.8857C41.6754 3.38509 40.8172 4.31479 39.816 4.8154C39.1008 5.17298 38.4571 5.45906 37.5989 5.31602C35.8825 5.02996 35.4535 5.53059 35.3819 7.39001C35.3819 7.53304 35.3104 7.74755 35.3104 7.89058C35.2389 8.67726 35.668 9.17788 36.3832 9.10637C37.2414 9.03485 37.742 9.53545 38.2426 10.0361C38.7432 10.5367 39.1723 11.0373 39.7444 11.4664C40.7456 12.1815 41.5323 11.967 41.8899 10.7512C42.319 9.24939 42.7481 7.67606 43.1057 6.17422C43.3203 5.45906 43.2487 4.67238 43.2487 3.8857ZM45.6803 7.67604C45.5372 8.24817 45.2512 8.60575 45.3227 8.96333C45.3942 9.46394 46.61 10.1076 47.1821 9.89307C47.5397 9.75004 47.8257 9.39243 47.9687 9.10637C48.0403 8.96333 47.9688 8.46272 47.8257 8.39121C47.1821 8.10514 46.5385 7.96211 45.6803 7.67604ZM44.8936 11.3234C44.6075 11.4664 44.536 11.5379 44.4645 11.6094C44.0354 12.0385 44.25 12.8252 44.8936 13.3973C45.3227 13.7549 45.8233 14.1125 46.3954 13.5404C46.4669 13.4689 46.6099 13.3258 46.5384 13.2543C46.3954 12.8252 46.3239 12.3961 46.0378 12.11C45.6803 11.7525 45.1797 11.5379 44.8936 11.3234ZM45.4657 4.60086C46.3239 5.38754 46.9676 5.45907 47.6828 4.88694C47.8973 4.74391 48.1118 4.38631 48.0403 4.24328C47.8973 3.95722 47.6112 3.67116 47.3252 3.67116C46.5385 3.59965 45.8233 3.81419 45.4657 4.60086Z" fill="#FF473E"/>
<path d="M5.27468 13.9695C5.48923 14.8992 4.55948 16.258 3.62978 16.4726C2.55703 16.7587 1.0552 15.829 0.769133 14.8277C0.483069 13.612 1.12671 12.3962 2.19945 12.1816C3.48674 11.8956 4.9171 12.7538 5.27468 13.9695Z" fill="#1B1818"/>
<path d="M1.41202 32.1345C1.19747 31.2048 1.76962 30.3466 2.77085 30.1321C3.62904 29.9175 4.27272 30.3466 4.41575 31.2048C4.55878 32.063 3.9866 33.0642 3.19992 33.2072C2.41325 33.3503 1.62657 32.9212 1.41202 32.1345Z" fill="#1B1818"/>
<path d="M51.4031 30.6327C51.1886 29.8461 51.5462 28.9878 52.3329 28.7018C53.191 28.4157 53.9062 28.8448 54.1208 29.703C54.3353 30.4181 53.8347 31.4909 53.191 31.6339C52.4043 31.92 51.6892 31.5624 51.4031 30.6327Z" fill="#1B1818"/>
<path d="M53.7616 23.4811C53.1179 23.4096 52.1882 23.6957 51.9737 22.6944C51.8306 22.1938 51.9737 21.5502 52.6888 21.3356C53.261 21.1211 53.8331 21.0496 54.2621 21.5502C54.8343 22.3369 54.3337 22.909 53.7616 23.4811Z" fill="#1B1818"/>
<path d="M31.4476 12.4667H31.377L31.4476 12.3961V12.4667Z" fill="#FF473E"/>
<path d="M43.2515 3.8855C43.2515 4.67218 43.323 5.38732 43.18 6.10248C42.8224 7.67583 42.3933 9.17769 41.9642 10.6795C41.6066 11.8953 40.8915 12.1098 39.8187 11.3947C39.2466 11.0371 38.8174 10.465 38.3168 9.96437C37.8162 9.46375 37.3156 8.96315 36.4574 9.03467C35.7423 9.10618 35.3132 8.60556 35.3847 7.81888C35.3847 7.67585 35.4562 7.46129 35.4562 7.31826C35.4562 5.53036 35.9569 4.95826 37.6733 5.24432C38.5315 5.38736 39.1751 5.10128 39.8902 4.7437C40.82 4.31461 41.6781 3.4564 43.2515 3.8855Z" fill="#1B1818"/>
<path d="M45.6794 7.67603C46.5376 7.96209 47.1813 8.10512 47.8249 8.39119C47.9679 8.4627 48.1109 8.96331 47.9679 9.10635C47.8249 9.39241 47.5388 9.75002 47.1812 9.89305C46.6806 10.1076 45.4649 9.53543 45.3218 8.96331C45.2503 8.60573 45.5364 8.17664 45.6794 7.67603Z" fill="#1B1818"/>
<path d="M44.8921 11.3234C45.2497 11.5379 45.6788 11.7524 46.0364 12.11C46.3224 12.3961 46.3939 12.8967 46.5369 13.2543C46.5369 13.3258 46.4655 13.4688 46.3939 13.5403C45.8218 14.041 45.3927 13.7549 44.8921 13.3973C44.2485 12.8252 44.1055 12.0385 44.4631 11.6094C44.4631 11.5379 44.6061 11.5379 44.8921 11.3234Z" fill="#1B1818"/>
<path d="M45.4668 4.60092C45.8244 3.81425 46.5396 3.59971 47.3263 3.67122C47.6123 3.67122 47.8984 3.95728 48.0414 4.24334C48.113 4.38637 47.8984 4.74397 47.6839 4.887C46.8972 5.45913 46.325 5.3876 45.4668 4.60092Z" fill="#1B1818"/>
<path d="M13.8574 20.9781C15.1447 18.6896 16.7181 16.6871 19.5072 16.1865C19.9363 16.115 20.7945 16.1865 20.866 16.3295C21.0091 16.7586 21.009 17.4738 20.7229 17.9029C19.3641 19.7623 17.5762 21.1211 15.4307 21.9793C14.5725 22.2653 14.1435 21.7648 13.8574 20.9781Z" fill="#1B1818"/>
<path d="M33.2376 44.6498C31.7358 45.5795 30.234 45.508 28.8037 45.2219C28.0885 45.0789 27.0158 45.0789 26.6582 43.8631C27.0873 43.6486 27.4448 43.291 27.8739 43.2195C29.1612 43.0764 30.4485 42.8619 31.7358 42.9334C32.8086 42.9334 33.0946 43.3625 33.2376 44.6498Z" fill="#1B1818"/>
<path d="M15.0027 33.708C16.5046 33.9226 16.2186 35.3529 16.5761 36.2111C16.7907 36.9263 16.7906 37.9275 15.7894 38.4281C14.5736 38.2135 14.4306 37.0693 14.0015 36.1396C13.6439 35.2814 13.787 34.4232 14.2161 33.708C14.5021 33.2789 14.7882 33.1359 15.0027 33.708C14.7882 33.9226 14.3591 34.1371 14.3591 34.3517C14.2875 35.5674 14.2876 36.7117 15.2888 37.6414C15.4318 37.7129 15.5749 37.7845 15.9325 37.856C16.0755 37.5699 16.2185 37.2838 16.433 36.9263C15.2173 36.3541 14.9313 35.4959 15.1458 34.3517C15.2888 34.1371 15.0742 33.9226 15.0027 33.708Z" fill="#1B1818"/>
<path d="M41.5338 41.5031C40.8902 41.6461 40.175 41.1455 40.032 40.4304C39.8174 39.4291 40.2466 38.4994 40.9617 38.3564C41.7484 38.2134 42.8211 38.7855 42.9641 39.5007C43.1787 40.2873 42.392 41.3601 41.5338 41.5031Z" fill="#1B1818"/>
<path d="M25.1567 42.5044C25.0852 43.2911 25.0851 44.0778 25.0136 44.936C24.3699 44.7929 23.7978 44.5784 23.8693 43.7202C24.0124 42.862 24.2985 42.4329 25.1567 42.5044Z" fill="#1B1818"/>
<path d="M13.9277 23.4095C15.215 23.338 16.2162 23.9816 17.146 23.1949C16.0017 24.5538 15.4296 24.6968 13.9277 23.4095Z" fill="#1B1818"/>
<path d="M35.668 42.6473C37.0268 43.7916 37.0268 44.0061 35.9541 45.0074C35.811 44.2207 35.7395 43.577 35.668 42.6473Z" fill="#1B1818"/>
<path d="M23.8677 15.6145C24.3683 16.8303 23.3671 17.4024 23.1525 18.1891C23.0095 18.1175 22.938 18.1175 22.7949 18.046C23.1525 17.2593 23.4386 16.4727 23.8677 15.6145Z" fill="#1B1818"/>
<path d="M26.0861 20.835C26.5152 21.4786 26.5152 21.4786 26.2292 22.1937C25.8001 21.6216 25.8 21.6216 26.0861 20.835Z" fill="#1B1818"/>
<path d="M34.2383 23.3381C34.3098 22.909 34.3813 22.5514 34.5244 22.0508C35.4541 22.8375 34.5243 22.9805 34.2383 23.3381C34.2383 23.2665 34.2383 23.3381 34.2383 23.3381Z" fill="#1B1818"/>
<path d="M34.2383 23.2666L34.3089 23.3373C34.3089 23.3373 34.2383 23.3372 34.2383 23.2666C34.2383 23.3372 34.2383 23.2666 34.2383 23.2666Z" fill="#1B1818"/>
</svg>
