<svg width="72" height="70" viewBox="0 0 72 70" fill="none" xmlns="http://www.w3.org/2000/svg">
<path d="M7.59138 51.8368C7.05716 51.3026 6.16689 50.9464 6.34496 49.967C5.45461 49.878 5.63266 48.8986 5.09844 48.4534C5.00941 48.3644 4.83129 48.0972 4.83129 47.9192C4.74226 47.2069 4.20806 46.6727 3.85192 46.0494C3.40674 45.2481 3.05064 44.3577 2.78353 43.4674C2.60546 43.0222 2.5164 42.577 2.42737 42.0428C2.42737 41.8648 2.51636 41.6867 2.6054 41.4196C2.6054 41.3305 2.60542 41.2415 2.51638 41.2415C2.16024 40.5292 1.7151 39.8169 1.448 39.1047C1.18089 38.2143 1.18087 37.2349 1.09183 36.2555C1.09183 36.0774 1.18082 35.8993 1.26986 35.6322C1.26986 35.5432 1.35887 35.4542 1.35887 35.4542C0.824659 33.3173 0.824702 32.2489 1.18085 30.112C1.44795 28.5094 1.71508 26.8177 1.98219 25.215C2.16026 24.3247 2.5164 23.4344 2.87255 22.633C3.13965 21.9207 3.67387 21.2975 3.76291 20.5852C4.11905 18.5374 5.54358 17.0237 6.61201 15.4211C7.05719 14.7088 7.50237 13.9965 7.94754 13.3733C7.94754 13.3733 7.94752 13.2843 8.03656 13.2843C8.83788 13.1062 9.01602 12.2158 9.55023 11.7707C10.1735 11.1474 10.6187 10.3461 11.2419 9.72284C11.6871 9.27767 12.1323 8.83249 12.6665 8.38731C13.2897 7.94213 14.091 7.58599 14.5362 7.05177C14.9814 6.42852 15.4265 5.6272 15.5156 4.82588C15.6937 3.49034 16.406 2.33285 17.6525 1.79864C18.5428 1.44249 19.4332 1.53155 20.2345 1.26444C21.9262 0.641193 23.6179 1.26441 25.2205 0.730196C25.5767 0.64116 25.9328 0.641182 26.378 0.641182C26.289 0.641182 26.1999 0.730196 26.0219 0.730196L26.1109 0.819264C26.1999 0.730228 26.289 0.641204 26.378 0.552168C27.9807 0.374096 29.5832 0.0179204 31.1859 0.0179204C32.6995 -0.0711154 34.3022 0.195981 35.8158 0.285017C37.4184 0.374053 39.021 0.463132 40.5346 0.552168C41.425 0.641204 42.3153 0.819243 43.2057 0.908278C43.7399 0.997314 44.2742 0.819243 44.8084 0.908278C45.8768 0.997314 47.0342 1.17542 48.1027 1.44253C48.6369 1.53156 48.9931 1.88769 49.5273 2.1548C49.6164 2.24384 49.7943 2.33286 49.8834 2.4219C49.8834 2.51093 49.9725 2.51094 49.9725 2.59998C49.9725 2.68902 49.8834 2.68903 49.8834 2.77806C49.9724 2.77806 49.9725 2.77806 50.0615 2.77806C50.1506 2.77806 50.2395 2.77804 50.2395 2.86708C50.5067 3.84647 50.8628 4.82585 50.9519 5.80525C51.0409 6.4285 50.9519 7.05178 50.9519 7.67503C51.0409 8.47635 51.6641 8.74346 52.1093 9.01057C52.5545 9.27768 52.6436 9.54478 52.7326 9.90093C52.8216 10.2571 52.9997 10.6132 53.1778 10.9693C53.712 11.6816 54.3352 12.3939 54.9585 13.0172C55.2256 13.3733 55.5817 13.7294 55.8488 13.9966C55.9379 14.0856 56.0269 14.0856 56.0269 14.1746C56.7392 15.6882 58.2528 16.6676 58.6979 18.3593C58.5199 18.6264 58.4309 18.8935 58.9651 18.8935C59.0541 18.8935 59.1431 18.9826 59.2321 19.0716C59.3212 19.3387 59.3212 19.5168 59.4103 19.7839C59.7664 20.7633 60.2116 21.6536 60.6568 22.633C60.5678 22.7221 60.4787 22.8111 60.3896 22.9001C60.4787 22.9001 60.6568 22.9891 60.7458 22.9891C60.9239 23.3453 61.102 23.7905 61.191 24.1467C61.4581 25.3932 62.2594 26.5506 62.1704 27.9752C62.0813 28.8655 62.3485 29.7559 62.4375 30.6463C62.5265 31.2695 62.7936 31.8927 62.7936 32.516C62.7936 33.0502 62.5265 33.6735 62.4375 34.2077C62.2594 35.9884 62.1704 37.7691 61.9923 39.4608C61.9033 40.1731 61.6361 40.7963 61.458 41.5086C61.1019 42.6661 60.7458 43.8236 60.3006 44.892C59.9445 45.6933 59.4993 46.4056 59.1431 47.2069C58.876 47.7411 58.698 48.3643 58.4309 48.8095C57.7186 49.967 56.9172 51.0354 56.1159 52.1039C55.4036 53.0833 54.6913 53.9736 53.801 54.7749C52.8216 55.6653 51.6641 56.2886 50.5957 57.0899C50.3286 57.268 50.0615 57.5351 49.7944 57.8022C48.5479 58.8706 47.2123 59.6719 45.6987 60.1171C44.4522 60.4732 43.2058 61.1855 41.9593 61.8088C41.8702 61.8088 41.8702 61.8978 41.8702 61.8978C40.8908 63.6785 39.4662 62.7882 38.1307 62.432C38.0417 62.432 37.8636 62.432 37.7745 62.5211C37.5965 62.6101 37.5074 62.7882 37.3294 62.7882C35.6377 63.0553 33.946 63.3224 32.2544 63.4114C30.7408 63.5005 29.2272 63.2334 27.7136 63.1443C25.7548 63.0553 23.974 62.521 22.1043 61.8978C21.8371 61.8088 21.57 61.8088 21.3029 61.7197C21.3919 61.7197 21.481 61.6307 21.5701 61.6307C21.481 61.6307 21.3029 61.6307 21.2139 61.5417C20.9468 61.3636 20.6797 61.2746 20.4126 61.0965C18.7209 60.2952 17.0292 59.4939 15.3376 58.6925H15.2485C14.7143 58.6035 15.3375 57.5351 14.7142 57.8022C14.002 58.1583 13.8239 57.446 13.3787 57.357C13.2897 57.357 12.5775 57.2679 13.0226 56.7337C12.9336 56.7337 12.8445 56.6447 12.8445 56.6447C12.3993 56.5557 11.9542 56.5556 11.9542 55.9324C11.9542 55.8434 11.9542 55.7544 11.8651 55.7544C11.2419 55.3092 10.5296 54.7749 9.9064 54.3298C9.99543 54.3298 9.99539 54.4188 10.0844 54.4188C10.0844 54.3298 10.0844 54.2407 10.0844 54.1517C9.81732 53.8846 9.55019 53.7065 9.28308 53.4394C9.37212 53.2613 9.63927 52.9052 9.10505 52.9942C9.01602 52.9942 9.01604 52.9942 9.01604 52.9052C8.74893 52.282 8.4818 51.7477 7.76952 51.5697C7.68048 51.8368 7.68041 51.8368 7.59138 51.8368ZM37.2403 52.9052C37.2403 52.9052 37.1513 52.9052 37.1513 52.8161C37.2404 52.9052 37.2403 52.9052 37.2403 52.9052C37.2403 52.9942 37.2403 52.9942 37.3294 52.9942C37.3294 52.9942 37.3294 52.9942 37.2403 52.9052ZM58.1637 43.2003V43.1113C58.2528 42.8442 58.2527 42.488 58.3418 42.2209V42.1318C58.4308 42.0428 58.4309 41.8648 58.5199 41.7757C58.609 41.5086 58.787 41.2415 58.8761 40.9744C59.0541 39.995 59.2322 38.9266 59.4993 37.9472C59.5883 37.324 59.7664 36.6117 59.8554 35.9884C59.9445 35.2761 60.0335 34.5638 60.1225 33.8515C60.0335 33.4954 60.0335 33.0502 59.9445 32.6941C59.8554 31.9818 59.8555 31.2695 59.7664 30.5572C59.7664 30.4682 59.9445 30.2901 59.9445 30.2011C59.8554 29.934 59.6773 29.6668 59.6773 29.3997C59.5883 28.4203 59.5883 27.441 59.1431 26.4616C58.965 26.1054 58.787 25.6603 58.6979 25.3041C58.4308 23.9686 57.8076 22.3659 57.2734 21.5646C57.0953 21.3865 57.1844 20.9413 57.1844 20.6742C57.1844 20.5852 57.0954 20.3181 57.0954 20.3181C56.5612 20.4071 56.5611 20.051 56.383 19.6058C56.205 19.0716 55.9378 18.4483 55.5817 18.0032C54.7804 17.0238 53.8901 16.2225 53.0888 15.2431C52.9997 15.154 52.9997 14.9759 52.9106 14.8869C52.7325 14.6198 52.6435 14.2636 52.4654 14.0856C52.1093 13.8185 51.7532 13.6404 51.3971 13.3733C51.3971 13.7294 51.3971 14.1746 51.3971 14.5307C51.308 15.5101 50.9519 16.3115 51.0409 17.3799C51.0409 18.9825 50.5957 20.5852 50.3286 22.1879C50.3286 22.2769 50.1506 22.455 50.0615 22.455C49.6163 22.455 49.5273 22.4549 49.9725 22.722C50.0615 22.8111 50.1505 23.0782 50.1505 23.0782C49.5273 23.8795 49.9725 25.2151 48.637 25.5712C48.5479 25.5712 48.3698 25.7493 48.3698 25.7493C48.6369 26.3725 48.1027 26.1945 47.8356 26.1945C46.8562 26.2835 46.0549 25.9273 45.1646 25.5712C43.5619 24.948 42.4044 23.4343 40.7128 22.722C39.7334 22.3659 38.8429 21.6536 37.8635 21.1194C37.6855 21.0304 37.3294 21.2084 37.2403 21.3865C36.7061 22.3659 36.439 23.3453 36.7062 24.5028C37.1513 26.3725 37.2404 28.2423 37.5075 30.112C37.5075 30.2901 37.5965 30.4682 37.5965 30.6463C37.5965 31.7147 37.6855 32.8722 37.6855 33.9406C37.6855 34.2967 37.7745 34.5638 37.8635 34.92C38.0416 35.5432 38.2197 36.1664 38.3087 36.7897C38.3087 36.9678 37.8635 37.1459 37.8635 37.3239C37.9526 38.0362 38.4869 38.6595 38.4869 39.5498C38.5759 40.7073 38.843 41.9538 39.1101 43.1113C39.1991 43.6455 39.1101 44.2687 39.3772 44.7139C39.6443 45.1591 39.1101 45.5152 39.3772 46.0494C39.6443 46.5837 39.4662 47.385 39.5553 48.0082C39.8224 49.6109 40.0895 51.2135 40.3566 52.8161C40.6237 54.5078 40.8908 56.1105 41.247 57.8022C41.336 58.1583 41.5141 58.5145 41.5141 58.8706C41.5141 59.3158 41.5141 59.4048 41.9593 59.3158C43.5619 59.1377 44.6304 57.446 46.4111 57.6241L46.5001 57.5351C46.7672 57.268 47.0343 57.0008 47.3014 56.7337C48.9931 55.3092 50.5957 53.9736 52.2874 52.6381C52.4655 52.5491 52.5545 52.371 52.6436 52.1929C53.1778 51.5697 53.7119 51.0355 54.2462 50.4122C55.2256 49.0767 56.294 47.7411 57.0062 46.1385C57.2733 45.4262 57.6296 44.8029 57.9857 44.0906C58.0748 44.0016 58.1637 43.9126 58.3418 43.8235C58.0747 43.5564 58.0747 43.3784 58.1637 43.2003ZM22.9946 9.90093C23.3508 8.92153 23.3507 8.9215 22.1933 8.9215H22.1043C22.0152 8.9215 21.9261 8.83249 21.8371 8.83249C21.659 8.65441 21.392 8.56535 21.2139 8.29824C20.3235 7.22981 19.4332 6.1614 18.5428 5.09297C18.4538 5.00394 18.1867 5.00394 18.1867 5.09297C18.0086 5.62719 17.8305 6.07238 17.7415 6.60659C17.4744 7.67502 17.2963 8.83248 17.1183 9.98994C16.9402 11.2364 16.6731 12.4829 16.7621 13.6404C16.8511 15.065 17.0293 15.065 16.5841 16.5786C16.5841 16.7567 16.6731 16.9347 16.7621 17.1128C16.7621 17.2909 16.8511 17.3799 16.8511 17.558C16.8511 18.5374 16.9401 19.5168 16.9401 20.4962C16.9401 20.9413 16.9402 21.0304 17.4744 20.9413C18.2758 20.7633 18.988 20.4071 19.6112 19.8729C20.4125 19.3387 21.481 19.1606 22.4604 18.8045C22.6385 18.7155 22.8165 18.7155 22.9946 18.6264C24.063 18.1812 25.1314 17.558 26.2889 17.2018C27.1793 16.9347 28.1587 16.8457 29.0491 16.5786C29.1381 16.5786 29.3161 16.4896 29.4051 16.4005C29.3161 16.3115 29.2271 16.2225 29.1381 16.1334C28.96 16.0444 28.782 15.9553 28.6039 15.8663C28.6929 15.4211 28.4258 15.4211 28.0696 15.4211C27.5354 14.9759 27.0012 14.6198 26.556 14.0856C25.3986 12.9281 24.3302 11.7707 23.2618 10.6132C23.2618 10.168 23.0836 10.079 22.9946 9.90093ZM46.8563 10.8803C47.3905 10.4351 47.0343 9.90089 46.9453 9.36668C47.0343 9.27764 47.0343 9.0996 47.1233 9.01057C47.1233 8.92153 47.2123 8.83248 47.2123 8.6544C47.1233 8.47633 47.0343 8.29826 46.9453 8.20922C46.9453 8.12019 47.0343 8.03114 47.0343 8.03114C47.7466 7.85307 47.1234 7.40791 47.3014 7.05177C47.0343 7.14081 46.8562 7.22981 46.5891 7.40788C46.5001 7.49692 46.5001 7.67499 46.4111 7.85306C45.7878 8.47631 45.1645 9.09959 44.5412 9.72284C44.0961 10.168 43.4728 10.3461 43.0277 10.7913C41.6031 12.0378 40.2676 13.2843 38.843 14.4417C38.1307 15.065 37.2403 15.5102 36.528 16.1334C36.3499 16.2225 36.439 16.6676 36.439 16.8457C37.3294 16.8457 38.0417 17.2909 38.843 17.7361C39.9115 18.3593 41.0689 18.8045 42.0483 19.4277C42.9387 20.051 43.6509 20.7633 44.7194 21.1194C45.2536 21.2975 45.6987 21.9208 46.1439 22.3659C46.322 22.544 47.2124 22.722 47.3904 22.544C47.3904 22.544 47.2123 22.3659 47.2123 22.2769C47.1233 22.2769 47.1233 22.1879 47.0343 22.1879C47.2123 22.0098 47.3904 21.8317 47.4795 21.5646C47.9246 19.8729 47.6575 18.2703 47.4795 16.5786C47.3014 15.2431 47.2123 13.9965 47.0343 12.75V12.661L46.8563 11.0584C46.7672 10.9693 46.7672 10.8803 46.8563 10.8803ZM5.63264 40.4402C6.16685 41.5086 5.98873 42.7551 6.70102 43.8235C7.32427 44.8029 7.5914 46.0494 8.39272 47.0288C8.74887 47.385 8.65981 48.0973 8.92692 48.5424C9.3721 49.1657 9.99539 49.6109 10.5296 50.2341C11.0638 50.7683 11.687 51.3025 12.0432 51.9258C12.6664 52.9052 13.4678 53.7956 14.3582 54.5078C15.6047 55.4872 17.1183 56.1105 18.4538 57.1789C19.4332 57.9802 20.7687 58.4254 22.0152 58.9596C22.1043 59.0487 22.5494 58.7816 22.5494 58.6925C22.9056 57.1789 23.2617 55.6653 23.5288 54.1517C23.7959 52.9052 23.9741 51.5696 24.1521 50.3231C24.3302 49.1657 24.5082 48.0973 24.6863 46.9398C25.3096 46.6727 24.7753 46.3166 24.8643 45.9604C24.9534 45.4262 25.3095 45.0701 25.2205 44.4468C25.1315 43.9126 25.5767 43.2003 25.6657 42.577C25.8438 41.5086 26.0218 40.5292 26.1999 39.4608C26.378 38.4814 26.378 37.5911 26.556 36.6117C26.8232 35.0981 27.2683 33.6735 27.5354 32.1599C27.8916 30.5572 28.0696 28.8655 28.5148 27.1738C29.049 25.3931 28.6929 23.7905 27.5354 22.3659C27.3573 22.0988 27.2683 21.7427 27.1793 21.3865C27.0012 20.7633 26.5561 20.4961 25.9328 20.7633C24.8644 21.2975 23.885 21.8317 22.8166 22.3659C22.2824 22.633 21.7481 22.8111 21.2139 22.9891C19.7893 23.3453 18.4538 23.7905 17.0293 24.1467C16.5841 24.2357 15.9608 24.5028 15.9608 23.6124C15.9608 23.5234 15.7827 23.2563 15.6046 23.2563C15.1594 23.1673 15.4266 23.0782 15.4266 22.8111C15.5156 22.1879 15.4266 21.5646 15.3376 20.8523C15.2485 20.2291 15.0704 19.6949 14.9814 19.0716C14.8924 17.647 14.8033 16.2225 14.7142 14.7979C14.7142 14.7089 14.6252 14.5308 14.5362 14.4417C13.7349 14.2637 14.002 13.6404 14.002 13.1062C14.002 12.9281 14.002 12.661 14.002 12.4829C13.8239 12.572 13.5568 12.661 13.3787 12.75C12.4883 13.6404 11.687 14.5307 10.7076 15.4211C9.46113 16.5786 9.01597 18.1812 7.94754 19.4277C7.5914 19.8729 7.14622 20.4962 7.05719 21.1194C6.96815 21.6536 6.43394 22.0098 6.61201 22.633C6.70104 22.9892 6.16687 23.5234 5.9888 23.9686C5.63266 24.7699 5.27651 25.5712 5.09844 26.4616C4.83133 28.2423 4.38611 29.934 4.38611 31.7147C4.38611 32.2489 4.20806 32.7831 4.2971 33.2283C4.38613 34.2967 4.56421 35.4542 4.74228 36.5226C4.92035 37.591 5.09838 38.5704 5.36548 39.6389C5.27645 39.8169 5.27649 39.995 5.18746 40.1731C5.09842 40.2621 4.92033 40.3512 4.83129 40.4402C5.00936 40.4402 5.18743 40.4402 5.27647 40.4402C5.36551 40.3512 5.5436 40.3512 5.63264 40.4402ZM22.9056 3.31226C22.9056 3.22322 22.9056 3.13417 22.9056 3.13417C22.6385 3.22321 22.3713 3.22322 22.1933 3.31226C22.0152 3.40129 21.8371 3.57936 21.7481 3.75743C21.9262 3.84647 22.0152 4.02456 22.1933 4.1136C22.2823 4.20264 22.4604 4.38071 22.5494 4.55878C22.9946 5.00396 23.4398 5.44914 23.885 5.89432C23.974 5.98335 23.974 6.07234 23.974 6.07234C23.974 6.16138 23.885 6.16139 23.796 6.25043C23.885 6.25043 23.9741 6.33949 24.1521 6.33949C25.0425 6.33949 25.8437 6.25043 26.7341 6.25043C28.6929 6.25043 30.6517 6.33947 32.6995 6.42851C34.4803 6.51754 36.172 6.51756 37.9527 6.60659C38.3979 6.60659 38.843 6.69561 39.2882 6.69561C40.0005 6.78464 40.8017 7.05176 41.425 6.87369C42.2263 6.69562 43.0277 6.25043 43.74 5.80525C44.5413 5.27103 45.0755 4.46972 45.7878 3.75743C45.8768 3.6684 45.8769 3.57935 45.9659 3.57935C45.8769 3.49032 45.7878 3.40127 45.6987 3.40127C44.7193 3.49031 43.7399 3.4013 42.7605 3.04516C41.8702 2.77805 40.8908 2.95609 40.0004 2.95609C37.3294 2.86706 34.7473 2.77803 32.0762 2.68899C30.3845 2.68899 28.6929 2.68903 27.0902 2.77806C25.5766 2.8671 24.2411 3.13418 22.9056 3.31226ZM60.7458 39.5498C60.5677 39.7279 60.3897 39.8169 60.3006 39.9059C60.4787 39.995 60.5677 40.0841 60.7458 40.1731C60.7458 39.995 60.8348 39.906 60.8348 39.7279C60.8348 39.6389 60.7458 39.6389 60.7458 39.5498ZM29.2271 1.26444C29.1381 1.53155 29.0491 1.62059 29.0491 1.70962C29.0491 1.70962 29.1381 1.79864 29.2271 1.79864C29.2271 1.7096 29.3161 1.6206 29.3161 1.44253C29.3161 1.53156 29.2271 1.44251 29.2271 1.26444ZM31.7202 35.3651C31.8092 35.2761 31.8982 35.1871 31.9872 35.098C31.9872 35.009 31.8982 34.92 31.8982 34.8309C31.8092 34.92 31.7202 34.9199 31.7202 35.009C31.6311 35.098 31.7202 35.1871 31.7202 35.3651ZM34.5693 48.8095C34.4802 48.8986 34.3912 48.9876 34.3912 48.9876C34.4803 48.9876 34.5692 49.0767 34.6583 49.0767C34.7473 49.0767 34.8364 48.9876 34.8364 48.9876C34.7474 48.8986 34.6583 48.8986 34.5693 48.8095ZM16.0498 18.6264C15.9607 18.6264 15.8718 18.5374 15.7827 18.5374C15.6937 18.5374 15.6936 18.6264 15.6046 18.7154C15.6936 18.8045 15.7827 18.8935 15.8717 18.8045C15.8717 18.8935 15.9607 18.8045 16.0498 18.6264ZM29.1381 40.7073C29.3162 40.7963 29.3161 40.8854 29.4051 40.8854C29.4051 40.8854 29.4942 40.8854 29.5833 40.8854C29.4942 40.7963 29.4942 40.7073 29.4051 40.6183C29.4051 40.5292 29.3162 40.6183 29.1381 40.7073ZM34.6583 49.5219C34.6583 49.5219 34.6583 49.4328 34.5693 49.4328H34.4803C34.4803 49.4328 34.4802 49.5219 34.5693 49.5219C34.5693 49.6109 34.6583 49.6109 34.6583 49.5219ZM27.4464 33.3173C27.5354 33.3173 27.5354 33.3173 27.6244 33.2283L27.5354 33.1392C27.5354 33.1392 27.4464 33.1392 27.3574 33.1392C27.3574 33.2283 27.4464 33.2283 27.4464 33.3173ZM60.2116 27.53L60.1225 27.4409L60.0335 27.53C60.1225 27.53 60.1226 27.619 60.2116 27.619C60.2116 27.7081 60.2116 27.619 60.2116 27.53ZM1.26986 32.9612C1.26986 32.9612 1.18082 32.9612 1.26986 32.9612C1.26986 33.0502 1.26986 33.0502 1.26986 33.1392C1.26986 33.1392 1.35887 33.1393 1.35887 33.0502C1.26984 33.0502 1.26986 32.9612 1.26986 32.9612ZM60.0335 28.0642C60.1225 28.0642 60.1225 28.0642 60.0335 28.0642V28.0642Z" fill="#070707"/>
<path d="M51.487 63.0552C50.9528 63.5004 50.3295 64.0346 49.7063 64.4798C49.4392 64.6579 48.994 64.7469 48.7269 64.925C46.59 66.0825 44.6312 67.596 42.2272 68.1303C41.1588 68.3974 40.0014 68.5755 39.111 69.1097C37.6864 69.822 36.1729 69.2878 34.8373 69.822C34.6593 69.911 34.3921 69.7329 34.125 69.7329C33.8579 70.089 33.2347 69.0207 33.1456 70C32.5224 70 31.81 70 31.1868 69.911C30.2964 69.8219 29.4061 69.6439 28.5157 69.6439C27.0911 69.7329 25.8446 68.9316 24.5091 68.8425C23.1736 68.7535 22.1052 68.0412 20.8587 67.6851C19.5231 67.3289 18.2766 66.7057 17.2082 65.8154C16.4959 65.1921 15.6056 65.1031 14.9823 64.4798C14.27 63.8566 13.4687 63.4114 12.7564 62.8772C12.3112 62.2539 12.3112 62.2539 12.0441 62.521C11.9551 62.521 11.9551 62.432 11.8661 62.432C11.688 62.0759 11.5989 61.6307 11.0647 61.8087C10.7086 61.4526 10.2635 61.0074 9.90732 60.6513C9.99636 60.5623 9.99631 60.4732 10.0853 60.3841C10.7086 60.4732 10.7977 60.028 10.7977 59.5828C10.7086 59.0486 10.3525 58.9596 9.90732 59.0486C9.37311 59.2267 9.37306 59.4938 9.64017 59.8499C9.64017 59.939 9.64019 60.028 9.55116 60.117C9.19501 59.7609 8.74979 59.4047 8.39365 59.0486C8.0375 58.6925 7.77042 58.4254 7.41427 58.0692C7.32524 57.8912 7.32528 57.8021 7.23625 57.6241C6.07878 56.6447 4.92127 55.5762 4.29802 54.1516C3.94188 53.2613 3.22964 52.46 2.78446 51.5696C2.07217 50.2341 1.44883 48.9876 0.914618 47.563C0.558475 46.5836 0.291367 45.6042 0.0242598 44.6248C-0.064776 44.4468 0.113361 44.1797 0.202397 44.0016C0.380468 44.0906 0.55854 44.1796 0.647576 44.3577C1.27083 44.9809 1.805 45.6042 2.16114 46.4056C2.60632 47.385 3.31861 48.2753 3.94186 49.2547C4.56511 50.2341 5.18834 51.2135 5.81159 52.2819C6.07869 52.638 6.34582 52.9942 6.61293 53.3503C6.791 53.5284 6.88004 53.7065 7.05811 53.8845C7.14714 54.0626 7.32524 54.2407 7.41427 54.4188C7.59235 55.042 7.68134 55.6653 8.48266 55.7543C8.74977 56.1105 8.83885 56.5556 9.19499 56.8227C10.0853 57.624 11.0647 58.4254 11.9551 59.1377C13.2016 60.1171 14.4481 61.1855 15.7837 62.1649C17.4753 63.3223 19.256 64.4798 21.3038 65.014C22.4613 65.3702 23.6188 65.8154 24.7763 66.2605C25.0434 66.3496 25.3995 66.3496 25.7556 66.4386C26.9131 66.7057 28.1596 66.8838 29.3171 67.1509C30.5636 67.418 31.8101 67.0618 33.0566 66.9728C33.947 66.8838 34.7482 66.9728 35.6386 67.0618C35.7276 67.1509 35.7277 67.2399 35.8167 67.329C35.9058 67.329 35.9057 67.2399 35.9947 67.2399C35.9057 67.1509 35.8167 67.1509 35.6386 67.0618C36.1728 66.9728 36.618 66.7947 37.1523 66.7057C37.4194 66.7057 37.7755 66.7057 38.0426 66.7057C38.3988 66.5276 38.7549 66.2605 39.111 66.0825C39.2 66.0825 39.2001 66.0825 39.2891 66.0825C39.3782 66.1715 39.4671 66.3496 39.5562 66.4386C39.6452 66.2605 39.7343 66.0825 39.8233 65.9934C39.9124 66.0825 40.0013 66.1715 40.0904 66.1715C40.1794 65.9934 40.1795 65.9044 40.2685 65.7263C40.3575 65.9044 40.4465 66.0824 40.5355 66.1715C40.4465 66.7947 40.8027 66.9728 41.3369 66.7947C42.2272 66.5276 41.8711 65.9934 41.604 65.4592C42.1383 65.2811 42.7615 65.1031 43.2957 64.925C43.4738 64.836 43.6519 64.8359 43.7409 64.7469C44.0971 64.0346 44.8984 64.0346 45.5216 63.6785C46.5901 63.2333 47.5694 62.521 48.5488 61.8978C49.083 61.5416 49.6172 61.2745 50.1515 60.9184C50.3295 60.9184 50.5076 60.8293 50.6856 60.8293C51.3089 60.7403 51.9322 61.2745 51.9322 61.6307C51.9322 61.8978 52.1102 62.1649 52.1102 62.432C52.0212 62.521 51.9322 62.6991 51.8432 62.7881C51.576 62.9662 51.576 62.9662 51.487 63.0552ZM50.7747 61.8978C50.5966 61.9868 50.4185 62.0758 50.2405 62.1649C50.4185 62.2539 50.5076 62.343 50.6856 62.432C50.8637 62.432 50.9528 62.3429 51.1308 62.3429C51.0418 62.1649 50.8637 61.9868 50.7747 61.8978ZM45.8777 64.2127C45.7887 64.1237 45.6107 64.0346 45.5216 63.8566C45.5216 63.9456 45.4325 64.0346 45.4325 64.0346C45.5215 64.2127 45.6106 64.3017 45.7887 64.3907C45.7887 64.3907 45.7887 64.3018 45.8777 64.2127ZM32.9675 68.4864C32.8785 68.3974 32.7895 68.3083 32.7895 68.3083C32.7004 68.3083 32.7005 68.3974 32.6114 68.4864C32.7005 68.5755 32.7004 68.5754 32.7895 68.5754C32.8785 68.6645 32.8785 68.5755 32.9675 68.4864ZM4.92123 54.5968C4.83219 54.5078 4.74322 54.5078 4.65419 54.4188C4.65419 54.5078 4.56517 54.5078 4.56517 54.5968C4.56517 54.6858 4.65416 54.6859 4.7432 54.7749C4.7432 54.7749 4.74316 54.6858 4.92123 54.5968ZM29.3171 67.0618C29.228 67.0618 29.228 66.9728 29.3171 67.0618C29.228 66.9728 29.228 67.0618 29.228 67.0618C29.228 67.0618 29.228 67.0618 29.3171 67.0618C29.228 67.0618 29.228 67.0618 29.3171 67.0618Z" fill="#0E0E0E"/>
<path d="M61.5541 47.9193C61.287 47.6521 61.465 47.5632 61.6431 47.296C62.0883 46.5838 62.5334 45.9605 63.2457 45.5153C63.6909 45.2482 65.1155 45.9605 65.1155 46.4057C65.2936 47.9193 64.6703 49.0768 63.869 50.2342C63.2457 51.1246 62.4444 51.8368 61.7321 52.7272C61.1089 53.4395 60.7527 54.4189 60.0404 55.0421C59.061 56.0215 58.4377 57.3571 57.0132 57.8913C56.3009 58.1584 55.9448 57.8913 55.5886 57.4461C55.3215 57.09 55.0544 56.5557 55.1434 56.2886C55.4996 55.6654 56.1229 55.1312 56.6571 54.5969C56.8352 54.4189 57.2803 54.597 56.9242 54.0627C56.8351 53.9737 57.0132 53.6176 57.1913 53.4395C57.9036 52.4601 58.7049 51.4807 59.5062 50.5013C59.5062 50.4123 59.5062 50.3233 59.5062 50.2342C59.6843 50.0561 59.7733 49.878 59.9514 49.7C60.0404 49.5219 60.2185 49.3438 60.3076 49.2548C61.0198 49.3438 61.1089 48.8987 61.1979 48.4535L61.2869 48.3644C61.376 48.0973 61.465 48.0083 61.5541 47.9193ZM64.7593 46.6728C64.6703 46.7618 64.4922 46.8508 64.4922 46.9399C64.4922 47.118 64.5813 47.207 64.6703 47.3851C64.7594 47.296 64.8484 47.296 64.8484 47.207C64.8484 46.9399 64.7593 46.8509 64.7593 46.6728Z" fill="#0E0E0E"/>
<path d="M9.82233 7.31889C9.28812 7.76407 8.75397 8.20924 8.21975 8.65442C7.68554 9.01057 7.24032 9.36669 6.61707 9.6338C6.34996 9.72283 5.99384 9.63382 5.6377 9.54478C5.72673 9.27767 5.72669 8.74344 5.81572 8.74344C6.34994 8.6544 5.99382 8.20926 6.17189 7.94215C6.7061 7.22986 7.24034 6.42852 7.86359 5.80527C8.3978 5.36009 9.02106 5.00396 9.64431 4.64781C10.3566 4.20263 10.3566 4.9149 10.6237 5.18201H10.7127L10.8018 5.09299C10.9799 5.09299 11.1579 5.09299 11.425 5.09299C11.2469 5.53817 11.0689 5.98335 10.8018 6.42853C10.4457 6.78467 10.0894 7.05178 9.82233 7.31889ZM11.0689 5.36009C10.9798 5.44912 10.9798 5.44912 11.0689 5.36009C10.9798 5.44912 11.0689 5.44916 11.0689 5.44916C11.0689 5.53819 11.0689 5.44912 11.0689 5.36009C11.0689 5.44912 11.0689 5.44912 11.0689 5.36009Z" fill="#0E0E0E"/>
<path d="M70.0988 7.67499C70.3659 7.67499 70.9001 8.03112 71.1672 8.38726C71.3453 8.83244 71.1672 9.36667 71.0782 9.90088C70.9891 10.257 70.8111 10.7022 70.633 10.7912C70.0988 10.9693 69.5645 10.9693 69.0303 10.8803C68.407 10.7912 67.962 9.8118 68.2291 9.18855C68.2291 9.09952 68.3181 9.09954 68.3181 9.09954C68.229 8.92147 68.0509 8.74342 67.9619 8.56535C68.14 8.56535 68.4961 8.56531 68.4961 8.47628C68.6742 7.76399 69.2084 7.67499 70.0988 7.67499Z" fill="#101010"/>
<path d="M65.1944 37.502C65.9957 37.502 66.5299 38.0362 66.619 38.7485C66.708 39.6389 65.8176 40.9744 65.2834 41.0635C64.5711 41.1525 63.5917 40.1731 63.5917 39.3718C63.4137 38.3924 64.126 37.5911 65.1944 37.502Z" fill="#101010"/>
<path d="M65.2869 19.5167C65.3759 20.14 64.7527 20.8522 64.2185 20.7632C63.9514 20.7632 63.6843 20.7632 63.5062 20.6742C63.1501 20.5852 62.7049 20.5852 62.7049 19.9619C62.7049 19.2496 62.4377 18.4483 63.239 18.0031C63.4171 17.9141 63.6843 18.0921 63.8624 18.0921C63.6843 18.5373 63.5953 18.9825 63.3282 19.4277C63.0611 20.0509 63.5952 19.5167 63.5952 19.6948C63.5952 20.229 64.0404 20.14 64.3075 20.14C64.4856 20.14 64.6637 20.0509 64.8417 19.9619C64.6637 19.6058 65.1979 19.6948 65.2869 19.5167Z" fill="#5D5D5D"/>
<path d="M65.2931 19.5167C65.2041 19.6947 64.5808 19.5167 64.937 20.0509C64.7589 20.1399 64.5808 20.229 64.4028 20.229C64.0466 20.229 63.6904 20.318 63.6904 19.7838C63.7795 19.7838 63.9576 19.6948 64.0466 19.6948C63.9576 19.6057 63.8686 19.4276 63.7796 19.3386C63.7796 19.4276 63.6904 19.6057 63.6904 19.6948C63.6904 19.5167 63.0673 20.0509 63.4234 19.4276C63.6015 18.9824 63.7795 18.5373 63.9576 18.0921C64.3137 18.0921 64.6699 18.1811 64.937 18.1811H65.026C65.026 18.2702 65.1151 18.3592 65.1151 18.4482C65.1151 18.5373 65.2041 18.6263 65.2041 18.7153C65.2932 19.0715 65.2931 19.3386 65.2931 19.5167Z" fill="#101010"/>
<path d="M51.9343 62.5209C51.8453 62.2538 51.7563 61.9867 51.7563 61.7196C51.7563 61.2744 51.044 60.8293 50.5098 60.9183C50.3317 60.9183 50.1537 61.0073 49.9756 61.0073C50.1537 60.3841 50.6878 60.3841 51.133 60.5621C52.2905 61.0073 52.4685 61.2744 52.3795 62.3429C52.2014 62.3429 52.0234 62.4319 51.9343 62.5209Z" fill="#5D5D5D"/>
<path d="M41.335 65.3701C41.6021 65.9043 41.9583 66.4385 41.0679 66.7057C40.5337 66.8837 40.2666 66.7056 40.2666 66.0824C40.6227 65.8153 40.9788 65.5482 41.335 65.3701Z" fill="#FAFAFA"/>
<path d="M7.68262 51.9258C8.3949 52.1039 8.75096 52.6381 8.92903 53.2613C8.39482 52.9942 7.68262 52.8161 7.68262 51.9258Z" fill="#5D5D5D"/>
<path d="M8.30178 55.5763C7.50046 55.4873 7.41147 54.775 7.2334 54.2408C7.94568 54.4188 8.03468 55.0421 8.30178 55.5763Z" fill="#5D5D5D"/>
<path d="M61.196 48.3643C61.107 48.8985 61.018 49.3437 60.3057 49.1656C60.5728 48.8985 60.8399 48.6314 61.196 48.3643Z" fill="#5D5D5D"/>
<path d="M37.7781 66.5278C37.5109 66.5278 37.1548 66.5278 36.8877 66.5278C37.0658 65.9936 37.2438 65.5484 37.7781 66.1716C37.8671 66.2606 37.8671 66.4387 37.7781 66.5278Z" fill="#FAFAFA"/>
<path d="M33.0596 69.9111C33.1486 68.9317 33.7718 69.9111 34.0389 69.644C33.7718 69.733 33.4157 69.822 33.0596 69.9111Z" fill="#5D5D5D"/>
<path d="M37.7754 66.5277C37.7754 66.4387 37.7754 66.2606 37.7754 66.1715C38.1315 66.0825 38.4877 65.9935 38.8439 65.9044C38.5768 66.0825 38.2206 66.3496 37.7754 66.5277Z" fill="#5D5D5D"/>
<path d="M11.4181 5.18205C11.2401 5.18205 11.062 5.18205 10.7949 5.18205C10.884 5.00398 10.8839 4.82593 10.9729 4.64786C11.062 4.82593 11.2401 5.00398 11.4181 5.18205Z" fill="#5D5D5D"/>
<path d="M9.81738 7.31889C10.1735 7.05178 10.5298 6.78465 10.7969 6.51755C10.4407 6.78465 10.0845 7.05178 9.81738 7.31889Z" fill="#5D5D5D"/>
<path d="M10.9746 61.7197C11.5979 61.5416 11.5979 62.0758 11.776 62.3429C11.5088 62.1649 11.2417 61.8978 10.9746 61.7197Z" fill="#5D5D5D"/>
<path d="M59.2326 19.1607C59.1436 19.0716 59.0546 18.9826 58.9655 18.9826C58.4313 18.9826 58.5203 18.7155 58.6984 18.4484C58.9655 18.7155 59.0545 18.9826 59.2326 19.1607Z" fill="#FAFAFA"/>
<path d="M11.96 62.5211C12.2271 62.254 12.2271 62.254 12.6723 62.8772C12.4052 62.6992 12.138 62.6101 11.96 62.5211Z" fill="#5D5D5D"/>
<path d="M39.6475 65.7263C39.5584 65.9044 39.4695 66.0825 39.3804 66.1715C39.2914 66.0825 39.2023 65.9044 39.1133 65.8154C39.2914 65.7264 39.4694 65.6373 39.6475 65.6373C39.6475 65.7264 39.6475 65.7263 39.6475 65.7263Z" fill="#5D5D5D"/>
<path d="M7.14956 57.6242C7.2386 57.8022 7.23866 57.8913 7.3277 58.0694C7.23866 58.0694 7.14958 57.9803 7.06055 57.9803C7.06055 57.8023 7.06053 57.7132 7.14956 57.6242Z" fill="#5D5D5D"/>
<path d="M9.90637 60.2061C9.81734 60.2951 9.81727 60.3842 9.72824 60.4732C9.6392 60.2951 9.55014 60.1171 9.37207 60.028C9.63918 60.1171 9.81734 60.2061 9.90637 60.2061Z" fill="#5D5D5D"/>
<path d="M59.9501 49.6999C59.772 49.878 59.683 50.0561 59.5049 50.2341C59.683 49.967 59.772 49.7889 59.9501 49.6999Z" fill="#5D5D5D"/>
<path d="M6.88366 53.6175C6.70558 53.4394 6.61655 53.2614 6.43848 53.0833C6.61655 53.3504 6.70558 53.5285 6.88366 53.6175Z" fill="#5D5D5D"/>
<path d="M51.4854 63.0552C51.5744 62.9662 51.6634 62.9662 51.6634 62.8772C51.7524 62.8772 51.7525 62.9662 51.8415 62.9662C51.7525 62.9662 51.5744 63.0552 51.4854 63.0552Z" fill="#5D5D5D"/>
<path d="M13.8258 3.31214C13.7367 3.40118 13.6478 3.40119 13.5587 3.49022C13.5587 3.40119 13.4697 3.31214 13.4697 3.31214C13.4697 3.2231 13.5587 3.13408 13.6478 3.04504C13.7368 3.13408 13.7367 3.2231 13.8258 3.31214Z" fill="#FAFAFA"/>
<path d="M61.5505 47.9191C61.4615 48.0082 61.3724 48.1863 61.1943 48.2753C61.3724 48.0972 61.4615 48.0082 61.5505 47.9191Z" fill="#5D5D5D"/>
<path d="M9.10254 53.3503C9.63675 53.2613 9.3696 53.6174 9.28057 53.7955C9.19153 53.6174 9.10254 53.5284 9.10254 53.3503Z" fill="#5D5D5D"/>
<path d="M39.6445 65.7263V65.6373C39.7336 65.6373 39.9117 65.5483 40.0007 65.5483C39.9117 65.7264 39.9117 65.8154 39.8227 65.9935C39.7336 65.9044 39.6445 65.8153 39.6445 65.7263Z" fill="#FAFAFA"/>
<path d="M65.0174 18.2695H64.9287C65.0174 18.1808 65.0175 18.0921 65.1062 18.0921C65.1062 18.1808 65.1061 18.2695 65.0174 18.2695Z" fill="#5D5D5D"/>
<path d="M60.7487 23.0782C60.6597 23.0782 60.4816 22.9891 60.3926 22.9891C60.4816 22.9001 60.5707 22.8111 60.6597 22.722C60.7488 22.8111 60.7487 22.9001 60.7487 23.0782Z" fill="#5D5D5D"/>
<path d="M49.8854 2.51102C49.7963 2.42199 49.6183 2.33296 49.5293 2.24393C49.6183 2.33296 49.7963 2.42199 49.8854 2.51102Z" fill="#5D5D5D"/>
<path d="M65.2833 18.8044C65.2833 18.7153 65.1943 18.6263 65.1943 18.5372C65.2834 18.5372 65.3723 18.5373 65.4614 18.6263C65.3723 18.7153 65.3724 18.7153 65.2833 18.8044Z" fill="#5D5D5D"/>
<path d="M7.59044 51.8368C7.67914 51.8368 7.67914 51.9255 7.59044 51.9255C7.50174 51.9255 7.50179 51.9255 7.41309 51.9255C7.59049 51.8368 7.59044 51.8368 7.59044 51.8368Z" fill="#5D5D5D"/>
<path d="M50.0593 2.8665C49.9706 2.8665 49.9705 2.8665 49.8818 2.8665C49.8818 2.7778 49.9706 2.77779 49.9706 2.68909C49.9706 2.77779 49.9706 2.7778 50.0593 2.8665Z" fill="#5D5D5D"/>
<path d="M59.9486 33.7626C59.8596 34.4748 59.8595 35.1871 59.6814 35.8994C59.5924 36.5226 59.5035 37.2349 59.3254 37.8582C59.1473 38.8376 58.9692 39.906 58.7021 40.8854C58.613 41.1525 58.4349 41.4196 58.3459 41.6867C58.2569 41.7758 58.2569 41.9538 58.1679 42.0429L58.0789 42.1319H58.1679C58.0788 42.399 58.0789 42.7551 57.9898 43.0223C57.3666 42.8442 57.6337 43.2894 57.6337 43.4674C57.5446 43.6455 57.5446 43.8236 57.4555 44.0017C57.0994 44.714 56.7433 45.3372 56.4762 46.0495C55.7639 47.6521 54.6955 48.8986 53.7161 50.3232C53.2709 50.9464 52.6476 51.5697 52.1134 52.1039C52.0244 52.282 51.8464 52.4601 51.7573 52.5491C50.0657 53.9737 48.4629 55.3092 46.7713 56.6448C46.5041 56.9119 46.2371 57.179 45.97 57.4461L45.8809 57.5351C44.1002 57.3571 43.1208 59.0487 41.4291 59.2268C40.9839 59.2268 40.9839 59.2268 40.9839 58.7816C40.9839 58.4255 40.8059 58.0693 40.7169 57.7132C40.4498 56.0215 40.1827 54.4189 39.8265 52.7272C39.5594 51.1245 39.2033 49.5219 39.0252 47.9192C38.9361 47.296 39.1143 46.4947 38.8472 45.9605C38.58 45.4263 39.1143 45.1592 38.8472 44.6249C38.58 44.1798 38.669 43.5565 38.58 43.0223C38.4019 41.8648 38.0458 40.6183 37.9568 39.4608C37.8678 38.6595 37.4225 38.0362 37.3335 37.2349C37.3335 37.0569 37.7787 36.8788 37.7787 36.7007C37.6896 36.0775 37.5116 35.4543 37.3335 34.831C37.2444 34.5639 37.1555 34.2077 37.1555 33.8516C37.0664 32.7831 37.0664 31.6257 37.0664 30.5572C37.0664 30.3792 36.9773 30.2011 36.9773 30.023C36.7102 28.1533 36.6213 26.2836 36.1761 24.4138C35.909 23.1673 36.1761 22.2769 36.7103 21.2976C36.7993 21.1195 37.2444 20.9414 37.3335 21.0305C38.3129 21.5647 39.2033 22.1879 40.1827 22.6331C41.8744 23.2563 42.9428 24.77 44.6345 25.4822C45.5248 25.8384 46.3262 26.1945 47.3056 26.1055C47.5727 26.1055 48.0178 26.1945 47.8397 25.6603C47.8397 25.6603 48.0178 25.4822 48.1068 25.4822C49.4423 25.1261 48.9972 23.7905 49.6205 22.9892C49.6205 22.9002 49.5314 22.6331 49.4423 22.6331C48.9971 22.366 49.0863 22.366 49.5314 22.366C49.6205 22.366 49.7095 22.1879 49.7985 22.0988C50.0656 20.4962 50.5999 18.8936 50.5108 17.2909C50.5108 16.3115 50.867 15.4212 50.867 14.4418C50.867 14.0856 50.867 13.6405 50.867 13.2843C51.2231 13.4624 51.6683 13.6405 51.9354 13.9966C52.1134 14.1747 52.2915 14.5308 52.3806 14.798C52.4696 14.887 52.4695 15.065 52.5586 15.1541C53.3599 16.0444 54.2503 16.9348 55.0516 17.9142C55.4078 18.3594 55.6749 18.9826 55.853 19.5168C55.942 19.873 56.031 20.2291 56.5652 20.2291C56.5652 20.2291 56.6543 20.4072 56.6543 20.5853C56.6543 20.8524 56.5653 21.2976 56.7433 21.4756C57.2775 22.277 57.9008 23.8796 58.1679 25.2151C58.2569 25.6603 58.435 26.0165 58.6131 26.3726C59.0582 27.263 58.9692 28.3314 59.1472 29.3108C59.1472 29.5779 59.4144 29.845 59.4144 30.1121C59.4144 30.2011 59.2363 30.3792 59.2363 30.4682C59.2363 31.1805 59.3254 31.8928 59.4144 32.6051C59.8596 33.0503 59.8596 33.4064 59.9486 33.7626Z" fill="#FCFCFC"/>
<path d="M5.27444 39.5498C5.09637 38.4814 4.82931 37.502 4.65123 36.4336C4.47316 35.3651 4.29509 34.2076 4.20605 33.1392C4.20605 32.605 4.29507 32.1598 4.29507 31.6256C4.29507 29.8449 4.74029 28.1532 5.0074 26.3725C5.09643 25.4822 5.54161 24.6808 5.89776 23.8795C6.07583 23.4343 6.61 22.9001 6.52096 22.5439C6.34289 21.9207 6.87711 21.5646 6.96614 21.0304C7.05518 20.4071 7.41132 19.8729 7.8565 19.3387C8.92493 18.0922 9.37009 16.4895 10.6166 15.3321C11.5069 14.5307 12.3973 13.5513 13.2877 12.661C13.4657 12.4829 13.7329 12.4829 13.911 12.3939C13.911 12.572 13.911 12.8391 13.911 13.0172C14 13.4623 13.6438 14.1746 14.4452 14.3527C14.5342 14.3527 14.6232 14.5307 14.6232 14.7088C14.7122 16.1334 14.8013 17.5579 14.8903 18.9825C14.9794 19.6058 15.1575 20.14 15.2465 20.7632C15.3355 21.3865 15.4246 22.0988 15.3355 22.722C15.3355 22.9891 15.0684 23.0782 15.5136 23.1672C15.6916 23.1672 15.8697 23.4343 15.8697 23.5234C15.8697 24.4137 16.4929 24.1466 16.9381 24.0576C18.3627 23.7014 19.6983 23.3453 21.1229 22.9001C21.6571 22.722 22.1912 22.5439 22.7254 22.2768C23.7939 21.7426 24.7733 21.2084 25.8417 20.6742C26.4649 20.4071 26.9101 20.6742 27.0882 21.2975C27.1772 21.6536 27.2663 22.0097 27.4444 22.2768C28.6909 23.7014 28.958 25.215 28.4237 27.0848C27.9786 28.6874 27.8005 30.3791 27.4444 32.0708C27.1773 33.5844 26.7321 35.009 26.465 36.5226C26.2869 37.4129 26.1979 38.3923 26.1088 39.3717C25.9308 40.4402 25.7527 41.4195 25.5746 42.488C25.4856 43.1112 25.0404 43.7345 25.1295 44.3577C25.2185 44.981 24.8623 45.4262 24.7733 45.8713C24.6843 46.2275 24.6843 46.4946 24.5953 46.8508C24.4172 48.0082 24.239 49.0766 24.061 50.2341C23.8829 51.4806 23.6158 52.8161 23.4378 54.0626C23.1707 55.5762 22.8145 57.0898 22.4584 58.6034C22.4584 58.7815 22.0132 58.9596 21.9242 58.8706C20.6777 58.3364 19.3422 57.8912 18.3628 57.0899C17.1163 56.0214 15.5135 55.3982 14.267 54.4188C13.3767 53.7065 12.5754 52.8161 11.9521 51.8367C11.596 51.2135 10.9728 50.7683 10.4386 50.145C9.90434 49.6108 9.28105 49.0766 8.83587 48.4534C8.56876 48.0082 8.65782 47.3849 8.30168 46.9398C7.50036 45.9604 7.23323 44.8029 6.60998 43.7345C5.98673 42.6661 6.07581 41.4195 5.54159 40.3511C5.54159 40.173 5.45251 39.8169 5.27444 39.5498ZM7.94551 38.6595C8.12359 39.7279 8.74681 40.7963 9.37006 40.7963C11.2398 40.8853 12.7534 40.084 14.267 39.1046C14.8012 38.7485 15.2465 38.6594 15.6917 39.0156C16.1369 39.2827 16.4039 39.906 16.9381 40.1731C17.6504 40.6182 18.4518 40.9744 19.3421 41.1524C19.7873 41.2415 20.7667 40.084 20.6777 39.5498C20.5886 38.3923 20.7666 37.1458 20.0544 36.0774C19.9653 35.9884 19.9653 35.7212 20.0544 35.6322C20.7666 34.8309 21.479 34.1186 22.3694 33.4063C22.9036 32.9611 23.0816 32.2489 22.4584 31.8037C21.9242 31.4475 21.479 31.1804 20.7667 31.0914C20.2325 31.0024 19.5202 30.6462 18.897 30.6462C18.3627 30.6462 18.0956 30.3791 18.0066 29.934C17.7395 28.7765 16.76 27.9751 16.4929 26.7286C16.3149 25.9273 14.8013 25.8383 14.178 26.1944C13.1096 26.8177 12.5754 27.8861 11.9521 28.8655C11.685 29.2217 11.3289 29.4888 11.2399 29.934C10.8838 31.0024 10.7946 31.0914 9.81524 30.7352C9.10296 30.4681 8.30164 30.023 7.58935 30.4681C6.9661 30.8243 6.25386 31.3585 6.07578 31.8927C5.80868 33.0502 7.41136 34.9199 8.56883 35.187C9.19208 35.3651 9.37015 35.8993 9.01401 36.5226C8.56883 37.2349 8.21262 37.9472 7.94551 38.6595Z" fill="#FCFCFC"/>
<path d="M28.6917 15.5992C28.8698 15.6882 29.0478 15.7773 29.2259 15.8663C29.3149 15.9553 29.404 16.0444 29.4931 16.1334C29.404 16.2225 29.2259 16.3115 29.1369 16.3115C28.2465 16.4895 27.2672 16.5786 26.3768 16.9347C25.2193 17.2909 24.1508 17.9142 23.0824 18.3593C22.9043 18.4484 22.7263 18.4483 22.5482 18.5374C21.5688 18.8935 20.5004 19.0716 19.6991 19.6058C18.9868 20.051 18.3636 20.4962 17.5622 20.6742C17.1171 20.7633 17.028 20.6742 17.028 20.2291C17.028 19.2497 17.028 18.2703 16.9389 17.2909C16.9389 17.1128 16.8499 17.0238 16.8499 16.8457C16.7609 16.6676 16.6719 16.4895 16.6719 16.3115C17.1171 14.8869 16.9389 14.7979 16.8499 13.3733C16.7609 12.1268 17.028 10.8803 17.2061 9.72286C17.3841 8.56539 17.5622 7.49697 17.8293 6.33951C17.9183 5.80529 18.0964 5.27107 18.2745 4.82589C18.2745 4.82589 18.6306 4.73685 18.6306 4.82589C19.521 5.89432 20.4113 6.96272 21.3017 8.03115C21.4798 8.20923 21.7469 8.38733 21.925 8.5654C21.836 8.5654 21.7469 8.65442 21.7469 8.65442C21.8359 8.65442 21.925 8.65442 22.014 8.65442C22.1031 8.65442 22.192 8.74343 22.2811 8.74343C22.5482 9.09957 22.8153 9.36671 23.0824 9.72286C23.1714 9.90093 23.3495 9.98996 23.4386 10.168C24.507 11.3255 25.5754 12.4829 26.7329 13.6404C27.178 14.0856 27.7123 14.5308 28.2465 14.9759C28.3356 15.243 28.5136 15.4211 28.6917 15.5992Z" fill="#FAFAFA"/>
<path d="M47.0387 22.2768C47.1278 22.3659 47.3058 22.5439 47.2168 22.5439C47.0387 22.722 46.1484 22.544 45.9704 22.3659C45.5252 21.9207 45.0799 21.2975 44.5457 21.1194C43.4773 20.7632 42.765 20.0509 41.8746 19.4277C40.8952 18.8044 39.6488 18.3593 38.6694 17.736C37.868 17.2909 37.1558 16.8457 36.2654 16.8457C36.2654 16.5786 36.1764 16.2224 36.3544 16.1334C37.0667 15.5101 37.9571 15.0649 38.6694 14.4417C40.0939 13.2842 41.4295 11.9487 42.8541 10.7913C43.2993 10.3461 43.9225 10.168 44.3677 9.72281C45.08 9.09956 45.6141 8.47628 46.2374 7.85303C46.4155 7.94206 46.6826 7.94207 46.8607 8.03111C46.8607 8.12015 46.7716 8.20919 46.7716 8.20919C46.7716 8.20919 46.7716 8.20921 46.7716 8.12018C46.8606 8.29825 46.9497 8.47632 47.0387 8.56536C47.0387 8.65439 46.9497 8.7434 46.9497 8.92147C46.8607 9.0105 46.8606 9.1886 46.7716 9.27763C46.7716 9.81185 46.7716 10.257 46.6826 10.7913C46.6826 10.8803 46.5936 10.8802 46.5936 10.9693C46.5936 10.9693 46.5936 10.9693 46.5936 10.8803L46.7716 12.4829V12.572C46.9497 13.8185 47.0387 15.154 47.2168 16.4005C47.3948 18.0922 47.662 19.6948 47.2168 21.3865C47.1277 21.5646 46.9497 21.7426 46.7716 22.0097C46.7716 22.0988 46.7716 22.1878 46.7716 22.2768C46.9497 22.3659 47.0387 22.2768 47.0387 22.2768Z" fill="#FAFAFA"/>
<path d="M22.9068 3.31224C24.2424 3.13417 25.5779 2.9561 26.9134 2.86706C28.6051 2.77802 30.2968 2.77805 31.8994 2.77805C34.5705 2.77805 37.1526 2.95611 39.8236 3.04514C40.803 3.04514 41.7824 2.86705 42.5837 3.13416C43.5631 3.4903 44.4535 3.57936 45.5219 3.49032C45.611 3.49032 45.6999 3.57937 45.789 3.6684C45.6999 3.75744 45.7 3.84643 45.611 3.84643C44.8987 4.55872 44.3644 5.27105 43.5631 5.8943C42.9398 6.42851 42.0495 6.78461 41.2482 6.96268C40.5359 7.14076 39.8236 6.87369 39.1113 6.78466C38.6661 6.69562 38.2209 6.69559 37.7758 6.69559C35.995 6.60655 34.3033 6.60654 32.5226 6.5175C30.5638 6.42847 28.6051 6.33948 26.5573 6.33948C25.6669 6.33948 24.8656 6.42849 23.9752 6.42849C23.8862 6.42849 23.7971 6.33948 23.619 6.33948C23.7081 6.25044 23.7972 6.25043 23.7972 6.16139C23.7972 6.07236 23.7972 5.98331 23.7082 5.98331C23.263 5.53813 22.8178 5.09295 22.3726 4.64778C22.2836 4.55874 22.1055 4.38067 22.0165 4.2026C21.9274 4.11356 21.7494 3.93547 21.5713 3.84643C21.7494 3.66836 21.8384 3.49029 22.0165 3.40125C22.1945 3.31222 22.4616 3.22322 22.7287 3.22322C22.9068 3.13419 22.9068 3.2232 22.9068 3.31224Z" fill="#FAFAFA"/>
<path d="M22.9947 9.90098C22.7276 9.54484 22.4605 9.2777 22.1934 8.92156H22.2824C23.3508 8.83252 23.3508 8.83255 22.9947 9.90098Z" fill="#5D5D5D"/>
<path d="M46.9427 8.03104C46.7646 7.942 46.4974 7.94199 46.3193 7.85296C46.4084 7.67488 46.4084 7.49681 46.4975 7.40778C46.6755 7.22971 46.9426 7.22974 47.2097 7.05167C47.0316 7.31877 47.6549 7.85297 46.9427 8.03104Z" fill="#5D5D5D"/>
<path d="M46.8555 10.8803C46.8555 10.346 46.8554 9.90085 46.9445 9.36664C46.9445 9.90085 47.3897 10.346 46.8555 10.8803Z" fill="#5D5D5D"/>
<path d="M59.9485 33.7626C59.8595 33.4064 59.8595 32.9612 59.7705 32.6051C59.8595 33.0503 59.8595 33.4064 59.9485 33.7626Z" fill="#5D5D5D"/>
<path d="M5.28112 39.5498C5.37015 39.8169 5.54825 40.084 5.63728 40.3511C5.54825 40.3511 5.37015 40.2621 5.28112 40.2621C5.10304 40.2621 4.92497 40.2621 4.83594 40.2621C4.92497 40.173 5.10307 40.084 5.1921 39.995C5.28114 39.995 5.28112 39.7279 5.28112 39.5498Z" fill="#FAFAFA"/>
<path d="M24.5986 46.6727C24.6877 46.3165 24.6876 46.0494 24.7767 45.6932C24.6876 46.0494 25.2219 46.4946 24.5986 46.6727Z" fill="#5D5D5D"/>
<path d="M58.4365 41.6867C58.5256 41.4196 58.7035 41.1525 58.7926 40.8854C58.7035 41.1525 58.6146 41.4196 58.4365 41.6867Z" fill="#5D5D5D"/>
<path d="M60.7508 39.5498C60.7508 39.6388 60.8399 39.7279 60.8399 39.7279C60.8399 39.906 60.7508 39.995 60.7508 40.1731C60.5728 40.084 60.4837 39.995 60.3057 39.9059C60.3947 39.8169 60.5728 39.7279 60.7508 39.5498Z" fill="#FAFAFA"/>
<path d="M58.1638 43.2003C58.0747 43.3784 57.9858 43.6455 57.9858 43.8236C57.8967 43.7346 57.8967 43.6455 57.8076 43.5565C57.8967 43.4675 58.0747 43.2894 58.1638 43.2003Z" fill="#FAFAFA"/>
<path d="M29.2259 1.2644C29.3149 1.44248 29.3149 1.44247 29.3149 1.5315C29.3149 1.62054 29.2259 1.79863 29.2259 1.88767C29.1368 1.88767 29.0479 1.7986 29.0479 1.7986C29.0479 1.62053 29.1368 1.53151 29.2259 1.2644Z" fill="#FAFAFA"/>
<path d="M23.3513 10.3462C23.2622 10.1681 23.0842 10.0791 22.9951 9.901C23.0842 10.0791 23.2622 10.1681 23.3513 10.3462Z" fill="#5D5D5D"/>
<path d="M31.7219 35.3651C31.7219 35.187 31.6328 35.0979 31.6328 35.0089C31.6328 34.9199 31.8109 34.9199 31.8109 34.8309C31.8109 34.9199 31.9 35.0089 31.9 35.098C31.9 35.187 31.811 35.276 31.7219 35.3651Z" fill="#FAFAFA"/>
<path d="M58.165 43.2003C58.076 43.2894 57.8979 43.4674 57.8088 43.5565C57.8088 43.3784 57.5418 42.8442 58.165 43.1113V43.2003Z" fill="#5D5D5D"/>
<path d="M28.6943 15.5993C28.5163 15.4212 28.3382 15.3322 28.1602 15.1541C28.5163 15.0651 28.6943 15.1541 28.6943 15.5993Z" fill="#5D5D5D"/>
<path d="M34.5745 48.8094C34.6635 48.8985 34.7526 48.9875 34.8417 48.9875C34.7526 48.9875 34.6635 49.0766 34.6635 49.0766C34.5745 49.0766 34.4855 48.9875 34.3965 48.9875C34.3965 48.8985 34.4855 48.8985 34.5745 48.8094Z" fill="#101010"/>
<path d="M57.8099 43.5564C57.8989 43.6455 57.899 43.7345 57.988 43.8235C57.899 43.9126 57.8099 44.0016 57.6318 44.0906C57.7209 43.9125 57.7208 43.7345 57.8099 43.5564Z" fill="#5D5D5D"/>
<path d="M16.0567 18.6264C15.9676 18.7155 15.8786 18.8935 15.7896 18.8935C15.7006 18.8935 15.6115 18.8045 15.5225 18.8045C15.6115 18.7155 15.6116 18.6264 15.7006 18.6264C15.8787 18.5374 15.9676 18.6264 16.0567 18.6264Z" fill="#FAFAFA"/>
<path d="M29.1416 40.7074C29.3197 40.6184 29.4086 40.6184 29.4086 40.6184C29.4977 40.7074 29.4977 40.7964 29.5868 40.8855C29.4977 40.8855 29.4977 40.9745 29.4086 40.8855C29.3196 40.7964 29.3197 40.7964 29.1416 40.7074Z" fill="#5D5D5D"/>
<path d="M47.0352 9.01064C47.0352 8.92161 47.1242 8.83255 47.1242 8.65448C47.1242 8.83255 47.0352 8.92161 47.0352 9.01064Z" fill="#5D5D5D"/>
<path d="M34.6568 49.5215C34.5681 49.5215 34.5682 49.5215 34.5682 49.5215C34.5682 49.5215 34.5682 49.4328 34.4795 49.4328H34.5682C34.6569 49.4328 34.6568 49.5215 34.6568 49.5215Z" fill="#101010"/>
<path d="M21.3057 61.8087C21.3947 61.8087 21.5728 61.8087 21.6618 61.8978C21.5728 61.8978 21.4837 61.9868 21.3947 61.9868C21.3947 61.8978 21.3057 61.8087 21.3057 61.8087Z" fill="#FDFDFD"/>
<path d="M21.9254 8.74346C21.8363 8.74346 21.7472 8.74346 21.6582 8.74346C21.7472 8.74346 21.8363 8.74346 21.9254 8.74346C21.9254 8.65442 21.9254 8.74346 21.9254 8.74346Z" fill="#5D5D5D"/>
<path d="M27.4474 33.3174L27.3584 33.2283C27.4474 33.2283 27.4474 33.2283 27.5364 33.2283L27.6254 33.3174C27.5364 33.2283 27.4474 33.3174 27.4474 33.3174Z" fill="#FCFCFC"/>
<path d="M26.3776 0.552246C26.2886 0.641282 26.1995 0.730307 26.1105 0.819343L26.0215 0.730274C26.1996 0.730274 26.2886 0.641282 26.3776 0.552246C26.3776 0.641282 26.3776 0.552246 26.3776 0.552246Z" fill="#FDFDFD"/>
<path d="M60.2095 27.53L60.1204 27.619C60.0314 27.619 60.0314 27.53 59.9424 27.53L60.0314 27.4409C60.1204 27.53 60.2095 27.53 60.2095 27.53Z" fill="#5D5D5D"/>
<path d="M9.99552 54.5079C9.99552 54.5969 9.99552 54.6859 9.99552 54.775C9.90648 54.775 9.90642 54.686 9.81738 54.686C9.90642 54.5969 9.99552 54.5969 9.99552 54.5079Z" fill="#FDFDFD"/>
<path d="M37.2402 52.9052C37.2402 52.9052 37.2402 52.9951 37.3302 52.9951C37.3302 52.9951 37.2402 52.9951 37.2402 52.9052Z" fill="#101010"/>
<path d="M37.2443 52.9951C37.2443 52.9951 37.2443 52.9052 37.1543 52.9052C37.2443 52.9052 37.2443 52.9051 37.2443 52.9951C37.2443 52.9051 37.2443 52.9951 37.2443 52.9951Z" fill="#101010"/>
<path d="M23.8828 52.0147L23.9728 52.1047H23.8828V52.0147Z" fill="#FCFCFC"/>
<path d="M1.27575 32.9612C1.27575 32.9612 1.27573 33.0499 1.36443 33.0499C1.36443 33.0499 1.36445 33.0499 1.27575 33.1386C1.27575 33.0499 1.18705 33.0499 1.27575 32.9612C1.18705 32.9612 1.27575 32.9612 1.27575 32.9612Z" fill="#FDFDFD"/>
<path d="M58.3468 42.2219H58.2568L58.3468 42.1319C58.3468 42.1319 58.3468 42.1319 58.3468 42.2219Z" fill="#5D5D5D"/>
<path d="M9.90693 60.2062C9.72886 60.1171 9.5507 60.1171 9.37263 60.0281C9.37263 59.9391 9.46176 59.761 9.46176 59.761C9.10561 59.4049 9.19458 59.0487 9.7288 58.9597C10.174 58.8706 10.6192 58.8706 10.6192 59.4939C10.7082 59.939 10.6192 60.3843 9.90693 60.2062Z" fill="#FAFAFA"/>
<path d="M45.8768 64.2127C45.7878 64.3017 45.7878 64.3908 45.7878 64.4798C45.6988 64.3908 45.5207 64.2127 45.4316 64.1236C45.4316 64.1236 45.5208 64.0346 45.5208 63.9456C45.6098 64.0346 45.6987 64.1237 45.8768 64.2127Z" fill="#FAFAFA"/>
<path d="M50.6903 62.3429C50.5122 62.2539 50.4232 62.1649 50.2451 62.0758C50.4232 61.9868 50.6012 61.8978 50.7793 61.8087C50.6903 62.0759 50.6903 62.2539 50.6903 62.3429Z" fill="#5D5D5D"/>
<path d="M32.9664 68.4865C32.8774 68.5756 32.7884 68.6646 32.7884 68.6646C32.6993 68.6646 32.6104 68.5756 32.6104 68.5756C32.6994 68.4865 32.6993 68.3975 32.7884 68.3975C32.7884 68.3084 32.8774 68.3975 32.9664 68.4865Z" fill="#FAFAFA"/>
<path d="M50.6836 62.3429C50.6836 62.1649 50.7726 61.9868 50.7726 61.8087C50.8616 61.8978 51.0397 62.0758 51.1288 62.1649C50.9507 62.2539 50.8617 62.3429 50.6836 62.3429Z" fill="#FAFAFA"/>
<path d="M4.92539 54.5969C4.83636 54.686 4.74736 54.775 4.74736 54.775C4.65833 54.775 4.56934 54.686 4.56934 54.5969C4.56934 54.5969 4.65835 54.508 4.65835 54.4189C4.65835 54.508 4.74732 54.5079 4.92539 54.5969Z" fill="#FDFDFD"/>
<path d="M35.4648 66.8839C35.5539 66.9729 35.6429 66.9728 35.821 67.0619C35.732 67.0619 35.7319 67.1509 35.6429 67.1509C35.5538 67.0619 35.5539 66.9729 35.4648 66.8839Z" fill="#FDFDFD"/>
<path d="M29.3175 67.0622C29.2275 67.0622 29.2275 67.0622 29.3175 67.0622C29.2275 67.0622 29.2275 67.0622 29.2275 67.0622C29.2275 67.0622 29.2275 66.9722 29.3175 67.0622C29.2275 66.9722 29.2275 67.0622 29.3175 67.0622Z" fill="#FDFDFD"/>
<path d="M64.7521 46.6726C64.8412 46.8507 64.9301 47.0288 64.9301 47.1178C64.9301 47.2069 64.7521 47.2069 64.7521 47.2959C64.6631 47.2069 64.574 47.0288 64.574 46.8507C64.4849 46.8507 64.574 46.7617 64.7521 46.6726Z" fill="#FAFAFA"/>
<path d="M11.0636 5.36002C11.0636 5.44872 11.0636 5.44872 11.0636 5.36002C11.0636 5.44872 11.0636 5.44875 11.0636 5.44875C10.9749 5.53745 10.9749 5.44872 11.0636 5.36002C10.9749 5.44872 10.9749 5.44872 11.0636 5.36002Z" fill="#5D5D5D"/>
<path d="M63.7744 19.6948C63.7744 19.6058 63.8634 19.4277 63.8634 19.3387C63.9525 19.4277 64.0414 19.6058 64.1305 19.6948C64.0414 19.6948 63.8634 19.6948 63.7744 19.6948C63.7744 19.7839 63.7744 19.6948 63.7744 19.6948Z" fill="#5D5D5D"/>
<path d="M7.95261 38.6596C8.30875 37.9473 8.57584 37.146 8.93198 36.5227C9.28813 35.9885 9.11005 35.3653 8.4868 35.1872C7.2403 34.9201 5.72676 33.0503 5.99387 31.8928C6.17194 31.3586 6.88418 30.8244 7.50743 30.4683C8.21972 30.0231 9.02104 30.4683 9.73333 30.7354C10.7127 31.0915 10.8908 31.0025 11.1579 29.9341C11.2469 29.578 11.6031 29.2218 11.8702 28.8657C12.4935 27.8863 13.0277 26.8178 14.0961 26.1946C14.7194 25.8384 16.322 26.0165 16.411 26.7288C16.5891 27.9753 17.6576 28.6876 17.9247 29.9341C18.0137 30.3793 18.2808 30.6464 18.815 30.6464C19.5273 30.6464 20.1506 31.0025 20.6848 31.0916C21.3971 31.1806 21.9313 31.4477 22.3765 31.8038C22.9997 32.249 22.8216 32.8723 22.2874 33.4065C21.486 34.1188 20.7738 34.9201 19.9724 35.6324C19.8834 35.7214 19.8834 35.9885 19.9724 36.0775C20.6847 37.146 20.5067 38.3925 20.5958 39.55C20.6848 40.0842 19.7054 41.3307 19.2602 41.1526C18.4589 40.9745 17.6575 40.6184 16.8562 40.1732C16.411 39.9061 16.0548 39.2828 15.6097 39.0157C15.1645 38.7486 14.7193 38.7486 14.1851 39.1048C12.7605 40.0842 11.1579 40.7964 9.28815 40.7964C8.75393 40.7964 8.13068 39.728 7.95261 38.6596ZM9.19913 39.4609C9.28817 39.2828 9.28813 39.1938 9.37716 39.1048L9.28815 39.0157C9.19911 39.1047 9.11012 39.1938 9.11012 39.2829C9.02108 39.2829 9.1101 39.3719 9.19913 39.4609Z" fill="#FB5646"/>
<path d="M47.0335 22.2769C46.9445 22.3659 46.9445 22.366 46.8555 22.455C46.8555 22.366 46.8555 22.2769 46.8555 22.1879C46.9445 22.1879 47.0335 22.1879 47.0335 22.2769Z" fill="#070707"/>
<path d="M9.19756 39.4607C9.10852 39.3717 9.01953 39.2827 9.01953 39.2827C9.10857 39.1937 9.19756 39.1046 9.19756 39.0156C9.2866 39.0156 9.37561 39.1046 9.28657 39.1046C9.28657 39.1937 9.2866 39.2827 9.19756 39.4607Z" fill="#FAFAFA"/>
</svg>
