<svg width="114" height="114" viewBox="0 0 114 114" fill="none" xmlns="http://www.w3.org/2000/svg">
<path d="M79.2249 58.192L75.9743 59.4922C76.2993 59.7089 76.516 59.8173 76.516 59.9257C77.1662 62.8512 77.2745 65.885 76.6244 68.8106C76.4077 70.2191 75.2158 71.3027 73.8072 71.6277C71.0984 70.5442 69.9065 67.9437 68.2813 65.6683C68.1729 65.56 68.1729 65.3433 68.1729 65.1266C67.9562 62.9595 67.7395 60.7925 67.5228 58.192L60.6966 55.3748L57.6627 46.9234L64.2722 47.6818C64.0555 47.5735 63.9472 47.3568 63.7305 47.2484C63.4054 46.815 63.1887 46.3816 62.972 45.9482C61.5634 42.806 60.1548 39.6637 58.6379 36.5215C58.5295 36.1965 58.4212 35.7631 58.0961 35.6547C56.2541 34.6795 56.2541 32.4041 54.9539 31.1039C54.6288 30.5621 54.5205 30.0204 54.5205 29.4786C54.5205 27.0949 57.3377 24.3861 59.1797 24.1693C61.13 24.061 62.972 24.9278 64.1639 26.3364C68.6063 30.9956 70.4483 36.9549 72.507 42.806C73.1571 44.7563 73.5905 46.7067 74.1323 48.5486L76.516 47.6818C76.2993 47.3568 76.191 47.0317 75.9743 46.7067C74.349 40.8556 72.0736 35.2213 69.0397 30.0204C66.981 26.228 64.7056 22.5441 60.0465 21.2438C57.6627 20.5937 54.0871 21.4605 52.5702 23.4109C52.4618 23.5192 52.5702 23.8443 52.6785 24.3861L54.4121 23.6276C53.6537 25.2529 53.0036 26.9865 52.4618 28.8285C50.9449 34.7879 52.7869 40.3139 54.7372 45.8398C56.6875 51.1491 59.1796 56.35 62.3219 61.1175C65.3557 65.885 67.9562 70.9776 73.6989 74.0115L71.2068 75.5284C67.1977 74.1198 65.0307 71.086 62.972 68.1604C58.8546 62.4178 56.4708 55.8083 53.8704 49.3071C52.3534 45.4064 51.3783 41.289 50.078 37.1716C49.4279 35.2213 49.2112 33.1626 49.5363 31.1039C49.8613 30.0204 49.6446 28.8285 48.8862 28.07C48.3444 30.1287 47.911 31.6457 47.5859 33.1626C46.8275 38.0385 45.4189 42.806 43.3602 47.2484C42.6017 49.0904 41.4099 50.824 39.8929 52.2326C37.5092 50.6073 36.2089 50.499 33.2834 51.9076C30.3579 53.3162 27.8658 54.8331 24.8319 56.4584C24.5069 55.8083 24.2902 55.4832 24.0735 55.0498C22.9899 53.3162 22.8816 53.2078 20.8229 53.7496C20.4978 53.8579 20.1728 53.8579 19.8477 53.9663C18.3308 54.0746 17.2473 55.4832 17.3556 57.0001C17.3556 57.2168 17.464 57.4335 17.464 57.6503C18.1141 59.7089 18.8725 61.7676 19.631 63.718C21.1479 67.727 22.6649 71.7361 24.1818 75.7451C24.5069 76.5036 24.9403 77.1537 25.482 77.8038C26.7823 77.3704 27.8658 76.937 29.0577 76.5036C30.4663 75.9618 31.5498 76.5036 32.7416 77.1537C33.9335 80.7293 35.4505 84.305 36.1006 88.314C34.8004 88.2056 33.7168 88.2056 32.6333 87.9889C30.8997 87.7722 29.2744 87.3388 27.5407 87.0138C26.5656 86.9054 25.6987 86.9054 25.482 88.314C27.4324 88.7474 29.2744 89.1808 31.1164 89.5059C32.9584 89.8309 34.9087 89.7226 36.7507 89.8309C37.1841 90.5894 37.6175 91.4562 37.9426 92.2147C38.701 94.5984 39.2428 97.0905 40.0013 99.3659C41.3015 103.375 41.5182 103.483 45.5272 102.183C46.069 102.075 46.5024 101.858 47.0442 101.75C49.4279 100.666 50.4031 98.7158 49.5363 96.3321C48.236 92.5397 46.7191 88.7474 45.2022 84.9551C43.7936 81.7045 42.1683 78.5623 40.7597 75.3117C40.0013 73.5781 40.3263 73.1446 41.8433 72.2778C42.8184 71.7361 43.6852 71.086 44.3354 70.1108C44.6604 69.244 44.8771 68.1604 44.8771 67.1853C51.3783 67.1853 57.121 69.244 62.6469 72.3862C61.3467 75.9618 59.0713 78.5623 56.6875 81.0544C54.3038 83.5465 51.7033 85.6052 48.9945 87.9889C50.9449 88.314 52.2451 87.3388 53.5453 86.472C58.5295 83.3298 62.3219 78.4539 64.0555 72.7112C66.0059 74.8783 68.3896 75.3117 70.7734 75.7451C72.507 76.1785 74.2406 75.5284 75.3242 74.1198C76.2993 72.7112 77.1661 71.3027 77.9246 69.6774C78.4664 68.4855 78.7914 67.2936 78.8998 65.9934C79.3332 63.718 79.2249 61.0092 79.2249 58.192ZM43.7936 90.9145L42.06 92.2147L39.7846 91.5646C39.7846 91.4562 39.7846 91.3479 39.7846 91.2395L41.0848 90.9145L39.5679 89.7226L39.6762 89.3975L43.7936 90.9145ZM47.4776 65.0182L43.6853 66.1017C43.4685 66.4268 43.2518 66.7519 43.0351 67.1853C41.6265 70.5442 38.8094 72.7112 35.6672 74.3365C35.017 74.6616 34.2586 74.8783 33.5001 74.9866C32.0915 75.2033 30.7913 75.2033 29.3827 75.3117C27.4324 75.5284 27.1073 75.3117 26.4572 73.5781C24.8319 69.244 23.0983 64.9099 21.3646 60.5758C20.7145 59.0588 19.9561 57.6503 19.0893 56.025L21.7981 55.0498L24.3985 59.1672C28.4076 55.9166 33.0667 54.2913 37.8342 52.0159C37.9426 53.2078 38.376 54.2913 38.0509 54.8331C37.1841 56.025 37.7259 57.1085 37.8342 58.3004C38.0509 59.7089 38.2676 61.0092 38.5927 62.3094C39.0261 63.9347 39.6762 65.6683 42.06 65.885L38.5927 55.8083C44.227 51.3658 47.3692 45.0814 48.9945 37.7134C51.3783 49.0904 55.7124 59.9257 61.8885 69.7857L47.4776 65.0182Z" fill="black"/>
<path d="M45.2023 32.2957C38.8095 30.5621 33.6086 32.9459 28.4077 35.5463C25.1571 36.9549 22.1232 39.0136 19.5228 41.3974C14.1052 46.7066 9.77107 52.7744 8.25414 60.2507C7.06226 66.1017 8.68755 71.5193 12.5882 76.2868C15.7305 80.1875 19.6311 83.4381 23.9652 85.9302C24.8321 86.472 25.5905 87.0137 24.832 88.314C23.4235 87.7722 22.0149 87.0137 20.7147 86.2553C15.5138 82.5713 10.7462 78.5622 7.92908 72.6029C5.87038 68.3771 5.43696 63.5013 6.73719 58.9505C8.25413 53.8579 10.7462 49.0904 14.1052 44.973C16.4889 41.8308 19.3061 39.0136 22.665 36.8465C27.8659 33.7043 33.2835 30.5621 39.568 30.1287C41.41 29.912 43.252 30.3454 44.6606 31.5373C44.7689 31.6456 44.9856 31.9707 45.2023 32.2957Z" fill="black"/>
<path d="M86.1595 9C87.0264 9.75847 87.2431 11.0587 86.7013 12.0339C84.8593 15.7179 82.2589 18.8601 78.8999 21.2438C78.6832 21.3522 78.4665 21.2438 77.8164 21.2438C79.6584 16.368 82.909 12.9007 86.1595 9Z" fill="black"/>
<path d="M91.252 70.2191C94.2858 70.7609 96.6696 73.1446 97.103 76.2869C94.6109 76.0701 93.5274 74.0114 91.9021 72.8196C91.0353 72.3862 90.7102 71.411 91.0353 70.5442C91.1436 70.4358 91.252 70.3275 91.252 70.2191Z" fill="black"/>
<path d="M102.087 45.0814C103.713 43.3477 105.88 43.6728 107.83 43.3477C108.589 43.2394 109.455 43.0227 109.78 44.1062C108.155 45.8398 105.121 46.2732 102.087 45.0814Z" fill="black"/>
<path d="M93.4192 35.5463C95.3695 33.596 97.5366 31.9707 99.9203 30.7788C100.137 30.6705 100.462 30.9955 100.787 31.1039C99.9203 33.4876 96.7781 35.438 93.4192 35.5463Z" fill="black"/>
<path d="M89.1933 81.3794C87.243 81.7045 85.401 79.8625 84.4258 76.6119C86.5928 75.9618 88.3265 77.8038 89.1933 81.3794Z" fill="black"/>
<path d="M74.9993 28.07C76.2995 25.903 76.7329 25.903 78.3582 27.8533C77.058 30.0204 76.6246 30.0204 74.9993 28.07Z" fill="black"/>
<path d="M101.546 52.7744C99.0534 53.0995 97.8616 52.341 96.9947 50.174C96.778 49.7406 96.453 49.3071 96.2363 48.8737C93.5275 43.6728 87.0263 41.7225 81.8254 44.4313C81.2836 44.7563 80.7419 45.0814 80.2001 45.5148C79.2249 46.2733 78.0331 46.9234 76.9495 47.6819L74.5658 48.5487C74.5658 48.657 74.5658 48.7654 74.6741 48.8737C71.3152 50.2823 67.5229 49.8489 64.5974 47.7902L57.0127 46.815L60.9134 55.4832L67.7396 58.3004C70.5567 59.0589 73.2656 60.9009 76.0827 59.4923L79.3333 58.192C80.4168 57.3252 81.7171 56.3501 83.0173 55.2665C86.2679 52.5577 88.8683 52.9911 91.1437 56.5668C92.5523 59.1672 94.611 61.3343 96.9947 63.0679C100.354 65.235 103.713 65.3433 106.746 63.393C107.722 62.7429 108.48 61.6593 108.588 60.4675C109.022 56.6751 105.338 52.2327 101.546 52.7744ZM103.604 62.3094C102.304 62.7429 100.787 62.5261 99.5952 61.7677C97.1031 60.034 95.0444 57.6503 93.8525 54.9415C91.2521 49.6322 85.5094 48.657 81.1753 52.6661C79.9834 53.8579 78.5748 54.9415 77.1662 55.9166C75.2159 57.1085 72.7238 57.2169 70.7735 55.9166C69.2565 55.1582 67.8479 54.2914 66.5477 53.3162C67.3062 53.4245 68.0646 53.5329 68.8231 53.858C71.2069 54.8331 73.9157 55.0498 76.4078 54.3997C77.9247 53.858 79.3333 52.9911 80.5252 51.9076C82.2588 50.499 84.3175 49.5239 86.5929 49.1988C87.7848 49.0904 88.9767 49.1988 90.1685 49.3071C89.9518 48.2236 89.085 48.1153 88.4349 48.0069C85.5094 47.4652 82.4755 48.2236 80.0918 50.0656C77.8164 52.016 74.9992 53.0995 71.9653 53.0995C74.2407 52.016 76.1911 51.1491 78.1414 50.2823C78.6832 49.9573 79.2249 49.7406 79.6584 49.4155C80.7419 48.657 81.9337 47.8986 83.1256 47.2484C87.1347 45.1898 92.1189 46.815 94.1776 50.8241C94.3943 51.1491 94.611 51.5825 94.7193 52.016C95.8029 54.6164 97.6448 55.9166 100.679 55.4832C103.388 55.1582 104.688 56.1334 105.555 58.4088C106.313 59.8173 105.771 61.551 104.363 62.3094C104.146 62.2011 103.929 62.2011 103.604 62.3094Z" fill="#FD5444"/>
</svg>
